<svg xmlns="http://www.w3.org/2000/svg" version="1.2" baseProfile="tiny" width="129.6" height="121.6" viewBox="19 4 162 152"><g transform="translate(0,0)" stroke-width="3" stroke="black" fill="none" ><path d="M52.5,40 l25,-25 m0,25 l-25,-25    M87.5,40 l25,-25 m0,25 l-25,-25    M122.5,40 l25,-25 m0,25 l-25,-25" stroke-width="9" stroke-linecap="round" stroke-linejoin="round" stroke="#dfe7e2" fill="none" ></path></g><path d="M25,50 l150,0 0,100 -150,0 z Z" stroke-width="9" stroke-linecap="round" stroke-linejoin="round" stroke="#dfe7e2" fill="none" ></path><path d="M25,50 l150,0 0,100 -150,0 z" stroke-width="3" stroke="black" fill="rgb(128,224,255)" fill-opacity="1" ></path><g transform="translate(0,0)" stroke-width="3" stroke="black" fill="none" ><path d="M52.5,40 l25,-25 m0,25 l-25,-25    M87.5,40 l25,-25 m0,25 l-25,-25    M122.5,40 l25,-25 m0,25 l-25,-25" ></path></g></svg>