<?xml version="1.0" encoding="UTF-8" standalone="no"?>
<!-- Created with Inkscape (http://www.inkscape.org/) -->

<svg
   xmlns:dc="http://purl.org/dc/elements/1.1/"
   xmlns:cc="http://creativecommons.org/ns#"
   xmlns:rdf="http://www.w3.org/1999/02/22-rdf-syntax-ns#"
   xmlns:svg="http://www.w3.org/2000/svg"
   xmlns="http://www.w3.org/2000/svg"
   xmlns:sodipodi="http://sodipodi.sourceforge.net/DTD/sodipodi-0.dtd"
   xmlns:inkscape="http://www.inkscape.org/namespaces/inkscape"
   width="21.151018mm"
   height="53.907688mm"
   viewBox="0 0 74.944552 191.01149"
   id="svg9481"
   version="1.1"
   inkscape:version="0.91 r13725"
   sodipodi:docname="07.RNO.svg">
  <defs
     id="defs9483" />
  <sodipodi:namedview
     id="base"
     pagecolor="#ffffff"
     bordercolor="#666666"
     borderopacity="1.0"
     inkscape:pageopacity="0.0"
     inkscape:pageshadow="2"
     inkscape:zoom="1.1884102"
     inkscape:cx="-79.27285"
     inkscape:cy="65.834785"
     inkscape:document-units="px"
     inkscape:current-layer="layer1"
     showgrid="false"
     fit-margin-top="0"
     fit-margin-left="0"
     fit-margin-right="0"
     fit-margin-bottom="0"
     inkscape:window-width="1366"
     inkscape:window-height="705"
     inkscape:window-x="-8"
     inkscape:window-y="-8"
     inkscape:window-maximized="1" />
  <metadata
     id="metadata9486">
    <rdf:RDF>
      <cc:Work
         rdf:about="">
        <dc:format>image/svg+xml</dc:format>
        <dc:type
           rdf:resource="http://purl.org/dc/dcmitype/StillImage" />
        <dc:title />
      </cc:Work>
    </rdf:RDF>
  </metadata>
  <g
     inkscape:label="Layer 1"
     inkscape:groupmode="layer"
     id="layer1"
     transform="translate(156.75799,-436.85646)">
    <path
       sodipodi:nodetypes="ccccccc"
       inkscape:connector-curvature="0"
       id="path55248"
       d="m -82.32309,627.36795 -3.21862,-168.32306 -33.744,-21.59481 -33.74401,21.59481 -3.21862,168.32306 36.96263,0 z"
       style="fill:#000000;fill-opacity:1;fill-rule:evenodd;stroke:#1a1a1a;stroke-width:1;stroke-linecap:butt;stroke-linejoin:miter;stroke-miterlimit:4;stroke-dasharray:none;stroke-opacity:1" />
    <path
       id="rect27239"
       d="m -139.89275,468.32342 41.214089,0 0,52.01149 -41.214089,0 z"
       style="fill:#ffffff;fill-opacity:1;stroke:#e6e6e6;stroke-width:1.11629403;stroke-linejoin:miter;stroke-miterlimit:4;stroke-dasharray:none;stroke-opacity:1"
       inkscape:connector-curvature="0" />
    <path
       id="rect27317"
       d="m -119.28573,455.38807 c 1.47921,0 2.67005,1.19084 2.67005,2.67005 l 0,35.87447 c 0,1.4792 -1.19084,2.67005 -2.67005,2.67005 -1.47921,0 -2.67005,-1.19085 -2.67005,-2.67005 l 0,-35.87447 c 0,-1.47921 1.19084,-2.67005 2.67005,-2.67005 z"
       style="fill:#f1dacb;fill-opacity:1;stroke:#e9c6af;stroke-width:1;stroke-linejoin:miter;stroke-miterlimit:4;stroke-dasharray:none;stroke-opacity:1"
       inkscape:connector-curvature="0" />
    <g
       transform="translate(-216.18823,410.69762)"
       id="g19917">
      <path
         inkscape:connector-curvature="0"
         style="fill:#bc8810;fill-opacity:1;stroke:none;stroke-width:1;stroke-linejoin:round;stroke-miterlimit:4;stroke-dasharray:none;stroke-opacity:1"
         d="M 109.45198,54.851074 A 12.54946,12.54946 0 0 1 96.902519,67.400535 12.54946,12.54946 0 0 1 84.353059,54.851074 12.54946,12.54946 0 0 1 96.902519,42.301614 12.54946,12.54946 0 0 1 109.45198,54.851074 Z"
         id="circle19919" />
      <path
         inkscape:connector-curvature="0"
         style="fill:#fddd10;fill-opacity:1;stroke:none;stroke-width:1;stroke-linejoin:round;stroke-miterlimit:4;stroke-dasharray:none;stroke-opacity:1"
         d="M 107.56956,54.851074 A 10.667042,10.667042 0 0 1 96.902519,65.518116 10.667042,10.667042 0 0 1 86.235477,54.851074 10.667042,10.667042 0 0 1 96.902519,44.184032 10.667042,10.667042 0 0 1 107.56956,54.851074 Z"
         id="circle19921" />
      <path
         inkscape:connector-curvature="0"
         id="path19923"
         d="m 96.903625,42.829742 c -3.152611,-3.97e-4 -6.273264,1.289382 -8.50284,3.518487 -2.229584,2.229127 -3.520454,5.350191 -3.520706,8.50284 2.48e-4,3.152671 1.291122,6.273724 3.520706,8.50284 2.229578,2.229115 5.350226,3.518894 8.50284,3.518497 3.152315,-2.49e-4 6.271665,-1.29174 8.500625,-3.520708 2.22896,-2.228957 3.52046,-5.348298 3.52071,-8.500629 -2.5e-4,-3.152309 -1.29175,-6.27165 -3.52071,-8.500618 -2.22896,-2.228957 -5.34831,-3.52046 -8.500625,-3.520709 z m 0,0.792714 c 2.93448,2.27e-4 5.863145,1.215373 7.938205,3.290418 2.07505,2.075056 3.29018,5.003728 3.29042,7.938195 -2.3e-4,2.934488 -1.21537,5.863161 -3.29042,7.938206 -2.07506,2.075055 -5.003724,3.290191 -7.938205,3.290417 -2.934986,3.74e-4 -5.864958,-1.213185 -7.940412,-3.288207 -2.075445,-2.07501 -3.29019,-5.005474 -3.290422,-7.940416 2.36e-4,-2.93492 1.214977,-5.865395 3.290422,-7.940406 2.075453,-2.075022 5.005429,-3.288581 7.940412,-3.288207 z"
         style="color:#000000;font-style:normal;font-variant:normal;font-weight:normal;font-stretch:normal;font-size:medium;line-height:normal;font-family:sans-serif;text-indent:0;text-align:start;text-decoration:none;text-decoration-line:none;text-decoration-style:solid;text-decoration-color:#000000;letter-spacing:normal;word-spacing:normal;text-transform:none;direction:ltr;block-progression:tb;writing-mode:lr-tb;baseline-shift:baseline;text-anchor:start;white-space:normal;clip-rule:nonzero;display:inline;overflow:visible;visibility:visible;opacity:1;isolation:auto;mix-blend-mode:normal;color-interpolation:sRGB;color-interpolation-filters:linearRGB;solid-color:#000000;solid-opacity:1;fill:#dbb110;fill-opacity:1;fill-rule:nonzero;stroke:none;stroke-width:0.69999999;stroke-linecap:butt;stroke-linejoin:round;stroke-miterlimit:4;stroke-dasharray:none;stroke-dashoffset:0;stroke-opacity:1;color-rendering:auto;image-rendering:auto;shape-rendering:auto;text-rendering:auto;enable-background:accumulate" />
    </g>
    <g
       style="display:inline;fill:#fddd10;fill-opacity:1;stroke:#bc8810;stroke-width:0.75659132;stroke-miterlimit:4;stroke-dasharray:none;stroke-opacity:1"
       transform="matrix(0.26909513,0,0,0.25967577,-12.31092,287.35829)"
       id="g19925">
      <path
         sodipodi:nodetypes="ccccc"
         stroke-miterlimit="3.8636"
         d="m -408.42231,701.18877 2.27623,0.53089 c -0.64131,1.12525 -1.95422,1.12894 -1.95422,1.12894 l -2.36574,-0.30834 c 0.062,-1.46322 2.04373,-1.35158 2.04373,-1.35158 z"
         id="path19927"
         inkscape:connector-curvature="0"
         style="display:inline;fill:#fddd10;fill-opacity:1;stroke:#bc8810;stroke-width:0.75659132;stroke-miterlimit:4;stroke-dasharray:none;stroke-opacity:1" />
      <path
         style="display:inline;fill:#fddd10;fill-opacity:1;stroke:#bc8810;stroke-width:0.75659132;stroke-miterlimit:4;stroke-dasharray:none;stroke-opacity:1"
         inkscape:connector-curvature="0"
         id="path19929"
         d="m -409.67436,702.64971 2.33628,0.0694 c -0.40567,1.23 -1.69183,1.49372 -1.69183,1.49372 l -2.37993,0.16644 c -0.22911,-1.4465 1.73546,-1.72967 1.73546,-1.72967 z"
         stroke-miterlimit="3.8636"
         sodipodi:nodetypes="ccccc" />
      <path
         sodipodi:nodetypes="ccccc"
         stroke-miterlimit="3.8636"
         d="m -410.75665,704.27037 2.32535,-0.23619 c -0.24163,1.27243 -1.48235,1.7018 -1.48235,1.7018 l -2.33783,0.47571 c -0.416,-1.40421 1.4948,-1.94143 1.4948,-1.94143 z"
         id="path19931"
         inkscape:connector-curvature="0"
         style="display:inline;fill:#fddd10;fill-opacity:1;stroke:#bc8810;stroke-width:0.75659132;stroke-miterlimit:4;stroke-dasharray:none;stroke-opacity:1" />
      <path
         style="display:inline;fill:#fddd10;fill-opacity:1;stroke:#bc8810;stroke-width:0.75659132;stroke-miterlimit:4;stroke-dasharray:none;stroke-opacity:1"
         inkscape:connector-curvature="0"
         id="path19933"
         d="m -411.77573,706.11282 2.29612,-0.43687 c -0.13042,1.28859 -1.32925,1.82389 -1.32925,1.82389 l -2.2878,0.67656 c -0.53615,-1.36286 1.32089,-2.06369 1.32089,-2.06369 z"
         stroke-miterlimit="3.8636"
         sodipodi:nodetypes="ccccc" />
      <path
         sodipodi:nodetypes="ccccc"
         stroke-miterlimit="3.8636"
         d="m -412.42321,707.93646 2.20761,-0.76779 c 0.0593,1.29381 -1.04839,1.99859 -1.04839,1.99859 l -2.16434,1.00368 c -0.7296,-1.26986 1.00507,-2.23459 1.00507,-2.23459 z"
         id="path19935"
         inkscape:connector-curvature="0"
         style="display:inline;fill:#fddd10;fill-opacity:1;stroke:#bc8810;stroke-width:0.75659132;stroke-miterlimit:4;stroke-dasharray:none;stroke-opacity:1" />
      <path
         style="display:inline;fill:#fddd10;fill-opacity:1;stroke:#bc8810;stroke-width:0.75659132;stroke-miterlimit:4;stroke-dasharray:none;stroke-opacity:1"
         inkscape:connector-curvature="0"
         id="path19937"
         d="m -412.71315,709.7779 2.00181,-1.20657 c 0.32486,1.25377 -0.61367,2.17184 -0.61367,2.17184 l -1.91082,1.42846 c -0.97581,-1.0921 0.52262,-2.39383 0.52262,-2.39383 z"
         stroke-miterlimit="3.8636"
         sodipodi:nodetypes="ccccc" />
      <path
         style="display:inline;fill:#fddd10;fill-opacity:1;stroke:#bc8810;stroke-width:0.75659132;stroke-miterlimit:4;stroke-dasharray:none;stroke-opacity:1"
         inkscape:connector-curvature="0"
         id="path19939"
         d="m -402.64239,684.74098 -0.11625,-2.33447 c 1.25831,0.30676 1.62331,1.56792 1.62331,1.56792 l 0.35488,2.35922 c -1.42383,0.34292 -1.86198,-1.59266 -1.86198,-1.59266 z"
         stroke-miterlimit="3.8636"
         sodipodi:nodetypes="ccccc" />
      <path
         sodipodi:nodetypes="ccccc"
         stroke-miterlimit="3.8636"
         d="m -401.18172,685.21471 -0.11625,-2.33447 c 1.25831,0.30676 1.62331,1.56792 1.62331,1.56792 l 0.35488,2.35922 c -1.42383,0.34292 -1.86198,-1.59266 -1.86198,-1.59266 z"
         id="path19941"
         inkscape:connector-curvature="0"
         style="display:inline;fill:#fddd10;fill-opacity:1;stroke:#bc8810;stroke-width:0.75659132;stroke-miterlimit:4;stroke-dasharray:none;stroke-opacity:1" />
      <path
         style="display:inline;fill:#fddd10;fill-opacity:1;stroke:#bc8810;stroke-width:0.75659132;stroke-miterlimit:4;stroke-dasharray:none;stroke-opacity:1"
         inkscape:connector-curvature="0"
         id="path19943"
         d="m -399.67544,685.7871 -0.11625,-2.33447 c 1.25831,0.30676 1.62331,1.56792 1.62331,1.56792 l 0.35488,2.35922 c -1.42383,0.34292 -1.86198,-1.59266 -1.86198,-1.59266 z"
         stroke-miterlimit="3.8636"
         sodipodi:nodetypes="ccccc" />
      <path
         sodipodi:nodetypes="ccccc"
         stroke-miterlimit="3.8636"
         d="m -398.19928,686.17873 -0.11625,-2.33447 c 1.25831,0.30676 1.62331,1.56792 1.62331,1.56792 l 0.35488,2.35922 c -1.42383,0.34292 -1.86198,-1.59266 -1.86198,-1.59266 z"
         id="path19945"
         inkscape:connector-curvature="0"
         style="display:inline;fill:#fddd10;fill-opacity:1;stroke:#bc8810;stroke-width:0.75659132;stroke-miterlimit:4;stroke-dasharray:none;stroke-opacity:1" />
      <path
         style="display:inline;fill:#fddd10;fill-opacity:1;stroke:#bc8810;stroke-width:0.75659132;stroke-miterlimit:4;stroke-dasharray:none;stroke-opacity:1"
         inkscape:connector-curvature="0"
         id="path19947"
         d="m -396.7504,686.4894 -0.30446,-2.31745 c 1.27898,0.2041 1.74467,1.43165 1.74467,1.43165 l 0.54431,2.32284 c -1.39147,0.45683 -1.98456,-1.43703 -1.98456,-1.43703 z"
         stroke-miterlimit="3.8636"
         sodipodi:nodetypes="ccccc" />
      <path
         sodipodi:nodetypes="ccccc"
         stroke-miterlimit="3.8636"
         d="m -395.23474,686.8004 -0.16479,-2.33154 c 1.26442,0.2805 1.65558,1.5338 1.65558,1.5338 l 0.40389,2.35133 c -1.41639,0.37248 -1.89472,-1.55357 -1.89472,-1.55357 z"
         id="path19949"
         inkscape:connector-curvature="0"
         style="display:inline;fill:#fddd10;fill-opacity:1;stroke:#bc8810;stroke-width:0.75659132;stroke-miterlimit:4;stroke-dasharray:none;stroke-opacity:1" />
      <path
         style="fill:#fddd10;fill-opacity:1;stroke:#bc8810;stroke-width:0.75659132;stroke-linejoin:miter;stroke-miterlimit:4;stroke-dasharray:none;stroke-opacity:1"
         d="m -397.5352,657.1541 a 6.0369806,6.0369806 0 0 0 -6.03711,6.0371 6.0369806,6.0369806 0 0 0 6.03711,6.03711 6.0369806,6.0369806 0 0 0 6.0371,-6.03711 6.0369806,6.0369806 0 0 0 -6.0371,-6.0371 z m 0,2.66406 a 3.3745041,3.3745041 0 0 1 3.37304,3.37304 3.3745041,3.3745041 0 0 1 -3.37304,3.375 3.3745041,3.3745041 0 0 1 -3.375,-3.375 3.3745041,3.3745041 0 0 1 3.375,-3.37304 z"
         id="path19951"
         inkscape:connector-curvature="0" />
      <path
         style="fill:#fddd10;fill-opacity:1;fill-rule:evenodd;stroke:#bc8810;stroke-width:0.75659132;stroke-linecap:butt;stroke-linejoin:miter;stroke-miterlimit:4;stroke-dasharray:none;stroke-opacity:1"
         d="m -395.63737,665.64974 0.0538,39.06184 c 0.22013,2.27648 1.02632,2.54786 3.69922,1.73633 7.2225,-2.19286 10.47368,-6.78445 12.75,-9.54883 -0.59188,0.0973 -1.71629,1.10571 -2.38104,1.6594 -0.47979,-0.0898 -1.02758,-0.29617 -1.44904,-0.62815 3.32407,-2.99669 4.71931,-5.23406 6.11328,-10.13281 2.17742,4.47677 2.88646,10.7235 0.64258,16.32617 -0.73552,-0.71607 -1.48773,-1.17203 -2.1679,-2.77447 0.28914,-0.70179 0.92303,-3.05443 0.47845,-3.8769 -3.20469,13.09739 -16.25978,12.76687 -19.63719,17.50684 -3.3774,-4.73997 -16.43249,-4.40945 -19.63718,-17.50684 -0.44458,0.82247 0.18931,3.17511 0.47845,3.8769 -0.68017,1.60244 -1.43238,2.0584 -2.1679,2.77447 -2.24388,-5.60267 -1.53484,-11.8494 0.64258,-16.32617 1.39397,4.89875 2.78921,7.13612 6.11328,10.13281 -0.42146,0.33198 -0.96925,0.53836 -1.44904,0.62815 -0.66475,-0.55369 -1.78916,-1.56206 -2.38104,-1.6594 2.27632,2.76438 5.5275,7.35597 12.75,9.54883 2.6729,0.81153 3.47909,0.54015 3.69922,-1.73633 l 0.0538,-39.06184 c 0.89816,-0.64749 1.76648,-0.7053 1.89783,-0.7053 0.13136,0 0.99968,0.0578 1.89784,0.7053 z"
         id="path19953"
         inkscape:connector-curvature="0"
         sodipodi:nodetypes="ccscccccccccccccccsccsc" />
      <path
         sodipodi:nodetypes="ccccccccc"
         inkscape:connector-curvature="0"
         id="path19955"
         d="m -394.44869,677.58253 16.44451,-3.1371 0,-3.06121 -19.53103,0 -19.53102,0 0,3.06121 16.44451,3.1371 3.08651,0 z"
         style="fill:#fddd10;fill-opacity:1;fill-rule:evenodd;stroke:#bc8810;stroke-width:0.75659132;stroke-linecap:butt;stroke-linejoin:miter;stroke-miterlimit:4;stroke-dasharray:none;stroke-opacity:1" />
      <path
         inkscape:connector-curvature="0"
         style="fill:#fddd10;fill-opacity:1;stroke:#bc8810;stroke-width:0.75659132;stroke-linejoin:miter;stroke-miterlimit:4;stroke-dasharray:none;stroke-opacity:1"
         d="m -396.33021,674.4834 a 1.2050081,1.2050081 0 0 1 -1.20501,1.20501 1.2050081,1.2050081 0 0 1 -1.20501,-1.20501 1.2050081,1.2050081 0 0 1 1.20501,-1.20501 1.2050081,1.2050081 0 0 1 1.20501,1.20501 z"
         id="circle19957" />
      <path
         inkscape:connector-curvature="0"
         id="path19959"
         d="m -415.02785,670.64984 1.97333,0 0,5.11047 -1.97333,0 z"
         style="display:inline;fill:#fddd10;fill-opacity:1;stroke:#bc8810;stroke-width:0.75659132;stroke-linejoin:miter;stroke-miterlimit:4;stroke-dasharray:none;stroke-opacity:1" />
      <path
         inkscape:connector-curvature="0"
         id="path19961"
         d="m -382.01588,670.64984 1.97332,0 0,5.11047 -1.97332,0 z"
         style="display:inline;fill:#fddd10;fill-opacity:1;stroke:#bc8810;stroke-width:0.75659132;stroke-linejoin:miter;stroke-miterlimit:4;stroke-dasharray:none;stroke-opacity:1" />
      <path
         sodipodi:nodetypes="ccccc"
         inkscape:connector-curvature="0"
         style="display:inline;fill:#fddd10;fill-opacity:1;stroke:#bc8810;stroke-width:0.75659132;stroke-linejoin:miter;stroke-miterlimit:4;stroke-dasharray:none;stroke-opacity:1"
         d="m -403.28084,670.64984 1.97333,0 0,7.46466 -1.97333,0 z"
         id="path19963" />
      <path
         id="path19965"
         d="m -393.38204,670.64984 1.97333,0 0,7.46466 -1.97333,0 z"
         style="display:inline;fill:#fddd10;fill-opacity:1;stroke:#bc8810;stroke-width:0.75659132;stroke-linejoin:miter;stroke-miterlimit:4;stroke-dasharray:none;stroke-opacity:1"
         inkscape:connector-curvature="0"
         sodipodi:nodetypes="ccccc" />
      <path
         style="color:#000000;font-style:normal;font-variant:normal;font-weight:normal;font-stretch:normal;font-size:medium;line-height:normal;font-family:sans-serif;text-indent:0;text-align:start;text-decoration:none;text-decoration-line:none;text-decoration-style:solid;text-decoration-color:#000000;letter-spacing:normal;word-spacing:normal;text-transform:none;direction:ltr;block-progression:tb;writing-mode:lr-tb;baseline-shift:baseline;text-anchor:start;white-space:normal;clip-rule:nonzero;display:inline;overflow:visible;visibility:visible;opacity:1;isolation:auto;mix-blend-mode:normal;color-interpolation:sRGB;color-interpolation-filters:linearRGB;solid-color:#000000;solid-opacity:1;fill:#bc8810;fill-opacity:1;fill-rule:evenodd;stroke:none;stroke-width:0.75659132;stroke-linecap:butt;stroke-linejoin:miter;stroke-miterlimit:4;stroke-dasharray:none;stroke-dashoffset:0;stroke-opacity:1;color-rendering:auto;image-rendering:auto;shape-rendering:auto;text-rendering:auto;enable-background:accumulate"
         d="m -412.82036,703.20159 c 4.025,4.41687 9.74042,6.71697 15.28516,6.71697 5.54473,0 11.26016,-2.3001 15.28515,-6.71697 -4.55183,3.56653 -10.14372,5.76749 -15.28515,5.9336 -5.14143,-0.16611 -10.73332,-2.36707 -15.28516,-5.9336 z"
         id="path19967"
         inkscape:connector-curvature="0"
         sodipodi:nodetypes="ccccc" />
      <path
         style="display:inline;fill:#fddd10;fill-opacity:1;stroke:#bc8810;stroke-width:0.75659132;stroke-miterlimit:4;stroke-dasharray:none;stroke-opacity:1"
         inkscape:connector-curvature="0"
         id="path19969"
         d="m -404.17557,663.75807 c 0.46309,-1.38942 2.3368,-0.73684 2.3368,-0.73684 l 2.04222,1.13692 c -0.92626,0.9053 -2.18952,0.54745 -2.18952,0.54745 l -2.1895,-0.94753 z"
         stroke-miterlimit="3.8636" />
      <path
         stroke-miterlimit="3.8636"
         d="m -405.90581,664.9834 c 0.30944,-1.4315 2.24295,-0.9863 2.24295,-0.9863 l 2.15362,0.90838 c -0.82245,1.00055 -2.1171,0.78203 -2.1171,0.78203 l -2.27947,-0.70411 z"
         id="path19971"
         inkscape:connector-curvature="0"
         style="display:inline;fill:#fddd10;fill-opacity:1;stroke:#bc8810;stroke-width:0.75659132;stroke-miterlimit:4;stroke-dasharray:none;stroke-opacity:1" />
      <path
         style="display:inline;fill:#fddd10;fill-opacity:1;stroke:#bc8810;stroke-width:0.75659132;stroke-miterlimit:4;stroke-dasharray:none;stroke-opacity:1"
         inkscape:connector-curvature="0"
         id="path19973"
         d="m -407.46247,666.3592 c 0.16638,-1.45508 2.13444,-1.20322 2.13444,-1.20322 l 2.23288,0.69101 c -0.7195,1.07696 -2.02941,0.98751 -2.02941,0.98751 l -2.33791,-0.4753 z"
         stroke-miterlimit="3.8636" />
      <path
         stroke-miterlimit="3.8636"
         d="m -408.92453,667.93802 c -0.002,-1.46456 1.98237,-1.44006 1.98237,-1.44006 l 2.2974,0.43038 c -0.59125,1.15236 -1.90277,1.21373 -1.90277,1.21373 l -2.377,-0.20405 z"
         id="path19975"
         inkscape:connector-curvature="0"
         style="display:inline;fill:#fddd10;fill-opacity:1;stroke:#bc8810;stroke-width:0.75659132;stroke-miterlimit:4;stroke-dasharray:none;stroke-opacity:1" />
      <path
         style="display:inline;fill:#fddd10;fill-opacity:1;stroke:#bc8810;stroke-width:0.75659132;stroke-miterlimit:4;stroke-dasharray:none;stroke-opacity:1"
         inkscape:connector-curvature="0"
         id="path19977"
         d="m -410.02295,669.63969 c -0.18544,-1.45278 1.78637,-1.67704 1.78637,-1.67704 l 2.33321,0.1392 c -0.44224,1.21735 -1.73574,1.44252 -1.73574,1.44252 l -2.38384,0.0953 z"
         stroke-miterlimit="3.8636" />
      <path
         stroke-miterlimit="3.8636"
         d="m -410.79257,671.4509 c -0.41609,-1.40422 1.49422,-1.94188 1.49422,-1.94188 l 2.32532,-0.2369 c -0.24123,1.27253 -1.48186,1.70228 -1.48186,1.70228 l -2.33768,0.47646 z"
         id="path19979"
         inkscape:connector-curvature="0"
         style="display:inline;fill:#fddd10;fill-opacity:1;stroke:#bc8810;stroke-width:0.75659132;stroke-miterlimit:4;stroke-dasharray:none;stroke-opacity:1" />
      <path
         style="display:inline;fill:#fddd10;fill-opacity:1;stroke:#bc8810;stroke-width:0.75659132;stroke-miterlimit:4;stroke-dasharray:none;stroke-opacity:1"
         inkscape:connector-curvature="0"
         id="path19981"
         d="m -409.79976,671.07716 2.28896,-0.47326 c -0.10995,1.29053 -1.30019,1.84479 -1.30019,1.84479 l -2.27676,0.71283 c -0.55738,-1.35433 1.28799,-2.08436 1.28799,-2.08436 z"
         stroke-miterlimit="3.8636"
         sodipodi:nodetypes="ccccc" />
      <path
         sodipodi:nodetypes="ccccc"
         stroke-miterlimit="3.8636"
         d="m -410.28813,672.75649 2.23482,-0.68474 c 0.0109,1.29514 -1.12239,1.95804 -1.12239,1.95804 l -2.20032,0.92215 c -0.68131,-1.29641 1.08789,-2.19545 1.08789,-2.19545 z"
         id="path19983"
         inkscape:connector-curvature="0"
         style="display:inline;fill:#fddd10;fill-opacity:1;stroke:#bc8810;stroke-width:0.75659132;stroke-miterlimit:4;stroke-dasharray:none;stroke-opacity:1" />
      <path
         style="display:inline;fill:#fddd10;fill-opacity:1;stroke:#bc8810;stroke-width:0.75659132;stroke-miterlimit:4;stroke-dasharray:none;stroke-opacity:1"
         inkscape:connector-curvature="0"
         id="path19985"
         d="m -410.50326,674.36917 2.12131,-0.9815 c 0.18644,1.2817 -0.84647,2.09216 -0.84647,2.09216 l -2.05493,1.21205 c -0.85084,-1.19204 0.78009,-2.32271 0.78009,-2.32271 z"
         stroke-miterlimit="3.8636"
         sodipodi:nodetypes="ccccc" />
      <path
         sodipodi:nodetypes="ccccc"
         stroke-miterlimit="3.8636"
         d="m -410.4205,676.02217 1.91767,-1.33633 c 0.40707,1.22955 -0.46871,2.2077 -0.46871,2.2077 l -1.81211,1.55178 c -1.04566,-1.02542 0.36314,-2.42315 0.36314,-2.42315 z"
         id="path19987"
         inkscape:connector-curvature="0"
         style="display:inline;fill:#fddd10;fill-opacity:1;stroke:#bc8810;stroke-width:0.75659132;stroke-miterlimit:4;stroke-dasharray:none;stroke-opacity:1" />
      <path
         style="display:inline;fill:#fddd10;fill-opacity:1;stroke:#bc8810;stroke-width:0.75659132;stroke-miterlimit:4;stroke-dasharray:none;stroke-opacity:1"
         inkscape:connector-curvature="0"
         id="path19989"
         d="m -410.02,677.85955 1.51531,-1.77962 c 0.70605,1.08581 0.10747,2.25434 0.10747,2.25434 l -1.35849,1.9612 c -1.27184,-0.72617 -0.2643,-2.43592 -0.2643,-2.43592 z"
         stroke-miterlimit="3.8636"
         sodipodi:nodetypes="ccccc" />
      <path
         sodipodi:nodetypes="ccccc"
         stroke-miterlimit="3.8636"
         d="m -409.18492,679.34165 1.26697,-1.96418 c 0.84328,0.98304 0.4043,2.22039 0.4043,2.22039 l -1.08754,2.12346 c -1.35662,-0.55181 -0.58374,-2.37967 -0.58374,-2.37967 z"
         id="path19991"
         inkscape:connector-curvature="0"
         style="display:inline;fill:#fddd10;fill-opacity:1;stroke:#bc8810;stroke-width:0.75659132;stroke-miterlimit:4;stroke-dasharray:none;stroke-opacity:1" />
      <path
         style="display:inline;fill:#fddd10;fill-opacity:1;stroke:#bc8810;stroke-width:0.75659132;stroke-miterlimit:4;stroke-dasharray:none;stroke-opacity:1"
         inkscape:connector-curvature="0"
         id="path19993"
         d="m -408.25518,680.88065 0.96228,-2.13008 c 0.9795,0.84739 0.7285,2.13609 0.7285,2.13609 l -0.76125,2.26104 c -1.42335,-0.34493 -0.92954,-2.26705 -0.92954,-2.26705 z"
         stroke-miterlimit="3.8636"
         sodipodi:nodetypes="ccccc" />
      <path
         sodipodi:nodetypes="ccccc"
         stroke-miterlimit="3.8636"
         d="m -407.10382,682.20884 0.57417,-2.26573 c 1.11282,0.66265 1.09151,1.97539 1.09151,1.97539 l -0.3533,2.35945 c -1.46177,-0.0902 -1.31239,-2.0691 -1.31239,-2.0691 z"
         id="path19995"
         inkscape:connector-curvature="0"
         style="display:inline;fill:#fddd10;fill-opacity:1;stroke:#bc8810;stroke-width:0.75659132;stroke-miterlimit:4;stroke-dasharray:none;stroke-opacity:1" />
      <path
         style="display:inline;fill:#fddd10;fill-opacity:1;stroke:#bc8810;stroke-width:0.75659132;stroke-miterlimit:4;stroke-dasharray:none;stroke-opacity:1"
         inkscape:connector-curvature="0"
         id="path19997"
         d="m -405.74049,683.0537 0.30936,-2.31679 c 1.18174,0.53005 1.31179,1.83651 1.31179,1.83651 l -0.0792,2.38444 c -1.46243,0.0788 -1.542,-1.90415 -1.542,-1.90415 z"
         stroke-miterlimit="3.8636"
         sodipodi:nodetypes="ccccc" />
      <path
         sodipodi:nodetypes="ccccc"
         stroke-miterlimit="3.8636"
         d="m -404.24674,684.05336 0.0399,-2.33702 c 1.23502,0.39011 1.51499,1.67283 1.51499,1.67283 l 0.19654,2.37765 c -1.44356,0.24707 -1.75147,-1.71345 -1.75147,-1.71345 z"
         id="path19999"
         inkscape:connector-curvature="0"
         style="display:inline;fill:#fddd10;fill-opacity:1;stroke:#bc8810;stroke-width:0.75659132;stroke-miterlimit:4;stroke-dasharray:none;stroke-opacity:1" />
      <path
         style="display:inline;fill:#fddd10;fill-opacity:1;stroke:#bc8810;stroke-width:0.75659132;stroke-miterlimit:4;stroke-dasharray:none;stroke-opacity:1"
         inkscape:connector-curvature="0"
         id="path20001"
         d="m -393.76146,687.27516 -0.14512,-2.33285 c 1.26201,0.29117 1.64259,1.54772 1.64259,1.54772 l 0.38403,2.35465 c -1.41948,0.36051 -1.88154,-1.5695 -1.88154,-1.5695 z"
         stroke-miterlimit="3.8636"
         sodipodi:nodetypes="ccccc" />
      <path
         sodipodi:nodetypes="ccccc"
         stroke-miterlimit="3.8636"
         d="m -392.27346,687.57461 0.25324,-2.32359 c 1.19421,0.50129 1.35582,1.80422 1.35582,1.80422 l -0.0215,2.38567 c -1.46009,0.11417 -1.58762,-1.86629 -1.58762,-1.86629 z"
         id="path20003"
         inkscape:connector-curvature="0"
         style="display:inline;fill:#fddd10;fill-opacity:1;stroke:#bc8810;stroke-width:0.75659132;stroke-miterlimit:4;stroke-dasharray:none;stroke-opacity:1" />
      <path
         style="display:inline;fill:#fddd10;fill-opacity:1;stroke:#bc8810;stroke-width:0.75659132;stroke-miterlimit:4;stroke-dasharray:none;stroke-opacity:1"
         inkscape:connector-curvature="0"
         id="path20005"
         d="m -390.73286,688.28982 0.56498,-2.26805 c 1.1155,0.6581 1.09952,1.97093 1.09952,1.97093 l -0.34375,2.36086 c -1.46212,-0.0842 -1.32079,-2.06374 -1.32079,-2.06374 z"
         stroke-miterlimit="3.8636"
         sodipodi:nodetypes="ccccc" />
      <path
         sodipodi:nodetypes="ccccc"
         stroke-miterlimit="3.8636"
         d="m -389.47466,689.14886 0.67353,-2.23822 c 1.08253,0.71106 1.00334,2.02161 1.00334,2.02161 l -0.45704,2.34156 c -1.45636,-0.15453 -1.21988,-2.12496 -1.21988,-2.12496 z"
         id="path20007"
         inkscape:connector-curvature="0"
         style="display:inline;fill:#fddd10;fill-opacity:1;stroke:#bc8810;stroke-width:0.75659132;stroke-miterlimit:4;stroke-dasharray:none;stroke-opacity:1" />
      <path
         style="display:inline;fill:#fddd10;fill-opacity:1;stroke:#bc8810;stroke-width:0.75659132;stroke-miterlimit:4;stroke-dasharray:none;stroke-opacity:1"
         inkscape:connector-curvature="0"
         id="path20009"
         d="m -388.55767,689.90117 1.21067,-1.99938 c 0.87089,0.95866 0.46721,2.20799 0.46721,2.20799 l -1.02682,2.15348 c -1.37175,-0.51301 -0.65111,-2.36212 -0.65111,-2.36212 z"
         stroke-miterlimit="3.8636"
         sodipodi:nodetypes="ccccc" />
      <path
         sodipodi:nodetypes="ccccc"
         stroke-miterlimit="3.8636"
         d="m -387.94607,690.82081 1.61197,-1.69258 c 0.64458,1.12338 -0.0181,2.25681 -0.0181,2.25681 l -1.46549,1.88259 c -1.22951,-0.79575 -0.12847,-2.44685 -0.12847,-2.44685 z"
         id="path20011"
         inkscape:connector-curvature="0"
         style="display:inline;fill:#fddd10;fill-opacity:1;stroke:#bc8810;stroke-width:0.75659132;stroke-miterlimit:4;stroke-dasharray:none;stroke-opacity:1" />
      <path
         style="display:inline;fill:#fddd10;fill-opacity:1;stroke:#bc8810;stroke-width:0.75659132;stroke-miterlimit:4;stroke-dasharray:none;stroke-opacity:1"
         inkscape:connector-curvature="0"
         id="path20013"
         d="m -387.56216,692.15084 1.96511,-1.26553 c 0.36197,1.24356 -0.54887,2.18912 -0.54887,2.18912 l -1.8675,1.48467 c -1.00761,-1.06282 0.45122,-2.40831 0.45122,-2.40831 z"
         stroke-miterlimit="3.8636"
         sodipodi:nodetypes="ccccc" />
      <path
         sodipodi:nodetypes="ccccc"
         stroke-miterlimit="3.8636"
         d="m -387.37393,693.27713 2.23523,-0.68336 c 0.0101,1.29513 -1.12356,1.95733 -1.12356,1.95733 l -2.2009,0.92079 c -0.68057,-1.2968 1.08921,-2.19481 1.08921,-2.19481 z"
         id="path20015"
         inkscape:connector-curvature="0"
         style="display:inline;fill:#fddd10;fill-opacity:1;stroke:#bc8810;stroke-width:0.75659132;stroke-miterlimit:4;stroke-dasharray:none;stroke-opacity:1" />
      <path
         style="display:inline;fill:#fddd10;fill-opacity:1;stroke:#bc8810;stroke-width:0.75659132;stroke-miterlimit:4;stroke-dasharray:none;stroke-opacity:1"
         inkscape:connector-curvature="0"
         id="path20017"
         d="m -387.77457,694.68239 2.29611,-0.43715 c -0.13028,1.2886 -1.32902,1.82407 -1.32902,1.82407 l -2.2877,0.67691 c -0.53606,-1.3629 1.32059,-2.06388 1.32059,-2.06388 z"
         stroke-miterlimit="3.8636"
         sodipodi:nodetypes="ccccc" />
      <path
         sodipodi:nodetypes="ccccc"
         stroke-miterlimit="3.8636"
         d="m -388.22773,696.06926 2.33502,0.10426 c -0.42399,1.2238 -1.71392,1.46832 -1.71392,1.46832 l -2.38215,0.13097 c -0.20749,-1.44976 1.76104,-1.70361 1.76104,-1.70361 z"
         id="path20019"
         inkscape:connector-curvature="0"
         style="display:inline;fill:#fddd10;fill-opacity:1;stroke:#bc8810;stroke-width:0.75659132;stroke-miterlimit:4;stroke-dasharray:none;stroke-opacity:1" />
      <path
         style="display:inline;fill:#fddd10;fill-opacity:1;stroke:#bc8810;stroke-width:0.75659132;stroke-miterlimit:4;stroke-dasharray:none;stroke-opacity:1"
         inkscape:connector-curvature="0"
         id="path20021"
         d="m -389.26869,697.11628 2.26979,0.55787 c -0.65463,1.11755 -1.96748,1.10567 -1.96748,1.10567 l -2.36192,-0.33636 c 0.0794,-1.46238 2.05961,-1.32724 2.05961,-1.32724 z"
         stroke-miterlimit="3.8636"
         sodipodi:nodetypes="ccccc" />
      <path
         sodipodi:nodetypes="ccccc"
         stroke-miterlimit="3.8636"
         d="m -390.79006,697.91297 2.10429,1.01741 c -0.87259,0.9571 -2.15431,0.67264 -2.15431,0.67264 l -2.24044,-0.81989 c 0.38159,-1.41395 2.29048,-0.87022 2.29048,-0.87022 z"
         id="path20023"
         inkscape:connector-curvature="0"
         style="display:inline;fill:#fddd10;fill-opacity:1;stroke:#bc8810;stroke-width:0.75659132;stroke-miterlimit:4;stroke-dasharray:none;stroke-opacity:1" />
      <path
         style="display:inline;fill:#fddd10;fill-opacity:1;stroke:#bc8810;stroke-width:0.75659132;stroke-miterlimit:4;stroke-dasharray:none;stroke-opacity:1"
         inkscape:connector-curvature="0"
         id="path20025"
         d="m -392.75406,698.40395 2.02873,1.16079 c -0.93683,0.89433 -2.19575,0.52173 -2.19575,0.52173 l -2.17823,-0.97319 c 0.47866,-1.3841 2.34528,-0.70939 2.34528,-0.70939 z"
         stroke-miterlimit="3.8636"
         sodipodi:nodetypes="ccccc" />
      <path
         sodipodi:nodetypes="ccccc"
         stroke-miterlimit="3.8636"
         d="m -394.79346,698.7309 1.99701,1.21453 c -0.96036,0.86901 -2.20889,0.46293 -2.20889,0.46293 l -2.15148,-1.03099 c 0.51544,-1.37082 2.36339,-0.64653 2.36339,-0.64653 z"
         id="path20027"
         inkscape:connector-curvature="0"
         style="display:inline;fill:#fddd10;fill-opacity:1;stroke:#bc8810;stroke-width:0.75659132;stroke-miterlimit:4;stroke-dasharray:none;stroke-opacity:1" />
      <path
         style="display:inline;fill:#fddd10;fill-opacity:1;stroke:#bc8810;stroke-width:0.75659132;stroke-miterlimit:4;stroke-dasharray:none;stroke-opacity:1"
         inkscape:connector-curvature="0"
         id="path20029"
         d="m -397.20097,698.71578 1.82957,1.45458 c -1.06143,0.74218 -2.24943,0.18325 -2.24943,0.18325 l -2.00576,-1.29179 c 0.68272,-1.29566 2.42566,-0.3461 2.42566,-0.3461 z"
         stroke-miterlimit="3.8636"
         sodipodi:nodetypes="ccccc" />
      <path
         sodipodi:nodetypes="ccccc"
         stroke-miterlimit="3.8636"
         d="m -400.02924,698.63497 1.82957,1.45458 c -1.06143,0.74218 -2.24943,0.18325 -2.24943,0.18325 l -2.00576,-1.29179 c 0.68272,-1.29566 2.42566,-0.3461 2.42566,-0.3461 z"
         id="path20031"
         inkscape:connector-curvature="0"
         style="display:inline;fill:#fddd10;fill-opacity:1;stroke:#bc8810;stroke-width:0.75659132;stroke-miterlimit:4;stroke-dasharray:none;stroke-opacity:1" />
      <path
         style="display:inline;fill:#fddd10;fill-opacity:1;stroke:#bc8810;stroke-width:0.75659132;stroke-miterlimit:4;stroke-dasharray:none;stroke-opacity:1"
         inkscape:connector-curvature="0"
         id="path20033"
         d="m -402.60816,698.7041 1.89229,1.37199 c -1.02746,0.78853 -2.23908,0.28285 -2.23908,0.28285 l -2.06109,-1.20155 c 0.62457,-1.32467 2.40792,-0.45336 2.40792,-0.45336 z"
         stroke-miterlimit="3.8636"
         sodipodi:nodetypes="ccccc" />
      <path
         sodipodi:nodetypes="ccccc"
         stroke-miterlimit="3.8636"
         d="m -405.06918,699.21034 2.01917,1.17731 c -0.94409,0.88666 -2.19993,0.50378 -2.19993,0.50378 l -2.17021,-0.99096 c 0.48995,-1.38014 2.351,-0.69021 2.351,-0.69021 z"
         id="path20035"
         inkscape:connector-curvature="0"
         style="display:inline;fill:#fddd10;fill-opacity:1;stroke:#bc8810;stroke-width:0.75659132;stroke-miterlimit:4;stroke-dasharray:none;stroke-opacity:1" />
      <path
         style="display:inline;fill:#fddd10;fill-opacity:1;stroke:#bc8810;stroke-width:0.75659132;stroke-miterlimit:4;stroke-dasharray:none;stroke-opacity:1"
         inkscape:connector-curvature="0"
         id="path20037"
         d="m -406.93444,700.00774 2.21989,0.73156 c -0.73901,1.06364 -2.04702,0.95036 -2.04702,0.95036 l -2.32887,-0.51787 c 0.19216,-1.45187 2.15601,-1.16414 2.15601,-1.16414 z"
         stroke-miterlimit="3.8636"
         sodipodi:nodetypes="ccccc" />
    </g>
  </g>
</svg>
