<?xml version="1.0" encoding="UTF-8" standalone="no"?>
<svg
   xmlns:dc="http://purl.org/dc/elements/1.1/"
   xmlns:cc="http://creativecommons.org/ns#"
   xmlns:rdf="http://www.w3.org/1999/02/22-rdf-syntax-ns#"
   xmlns:svg="http://www.w3.org/2000/svg"
   xmlns="http://www.w3.org/2000/svg"
   xmlns:sodipodi="http://sodipodi.sourceforge.net/DTD/sodipodi-0.dtd"
   xmlns:inkscape="http://www.inkscape.org/namespaces/inkscape"
   version="1.1"
   viewBox="0 0 300.50068 550.06075"
   stroke-miterlimit="10"
   id="svg3989"
   inkscape:version="0.92.1 r15371"
   width="300.50067"
   height="550.06073"
   sodipodi:docname="Paki-air-force-OF-5.svg"
   style="fill:none;stroke:none;stroke-linecap:square;stroke-miterlimit:10">
  <metadata
     id="metadata4365">
    <rdf:RDF>
      <cc:Work
         rdf:about="">
        <dc:format>image/svg+xml</dc:format>
        <dc:type
           rdf:resource="http://purl.org/dc/dcmitype/StillImage" />
        <dc:title></dc:title>
      </cc:Work>
    </rdf:RDF>
  </metadata>
  <defs
     id="defs4363" />
  <sodipodi:namedview
     pagecolor="#ffffff"
     bordercolor="#666666"
     borderopacity="1"
     objecttolerance="10"
     gridtolerance="10"
     guidetolerance="10"
     inkscape:pageopacity="0"
     inkscape:pageshadow="2"
     inkscape:window-width="1366"
     inkscape:window-height="705"
     id="namedview4361"
     showgrid="false"
     inkscape:zoom="0.64299745"
     inkscape:cx="21.679983"
     inkscape:cy="276.55453"
     inkscape:window-x="-8"
     inkscape:window-y="-8"
     inkscape:window-maximized="1"
     inkscape:current-layer="svg3989"
     inkscape:snap-global="true"
     inkscape:snap-bbox="true"
     inkscape:snap-bbox-midpoints="true" />
  <clipPath
     id="p.0">
    <path
       d="M 0,0 H 321.2152 V 645.4147 H 0 Z"
       id="path3992"
       inkscape:connector-curvature="0"
       style="clip-rule:nonzero" />
  </clipPath>
  <path
     style="opacity:1;fill:#353d4b;fill-opacity:1;stroke:none;stroke-width:5.39689922;stroke-linecap:square;stroke-linejoin:miter;stroke-miterlimit:10;stroke-dasharray:none;stroke-dashoffset:0;stroke-opacity:1;paint-order:markers stroke fill"
     d="M 0,549.82221 17.441547,1.5136745 H 283.25397 L 300.50066,550.06072 0,549.8222 Z"
     id="path5000"
     inkscape:connector-curvature="0"
     sodipodi:nodetypes="cccccc" />
  <path
     style="fill:#000000;fill-opacity:0;fill-rule:nonzero"
     inkscape:connector-curvature="0"
     id="path4112"
     d="M 59.68372,326.2409 99.36876,268.35113" />
  <path
     style="fill:#000000;fill-opacity:0;fill-rule:nonzero"
     inkscape:connector-curvature="0"
     id="path4128"
     d="M 117.28242,324.68365 74.731234,269.31356" />
  <path
     style="fill:#000000;fill-opacity:0;fill-rule:nonzero"
     inkscape:connector-curvature="0"
     id="path4026"
     d="m 234.52691,507.81786 -8.1611,11.3772" />
  <path
     style="fill:#000000;fill-opacity:0;fill-rule:nonzero"
     inkscape:connector-curvature="0"
     id="path4046"
     d="m 52.602791,516.73421 8.610329,11.52216" />
  <path
     style="fill:#000000;fill-opacity:0;fill-rule:nonzero"
     inkscape:connector-curvature="0"
     id="path4050"
     d="m 59.288273,511.70082 8.161095,11.63086" />
  <path
     style="fill:#000000;fill-opacity:0;fill-rule:nonzero"
     inkscape:connector-curvature="0"
     id="path4054"
     d="m 65.973763,507.81786 8.161095,11.3772" />
  <path
     style="fill:#f1d743;fill-rule:nonzero"
     inkscape:connector-curvature="0"
     id="path4141"
     d="m 127.03667,494.41121 c 0.50581,-2.25299 -3.1385,-5.63165 -4.55554,-7.63989 -1.41704,-2.00818 -2.3272,-3.91913 -3.94666,-4.40924 -1.61947,-0.49012 -5.01088,0.0483 -5.77015,1.46875 -0.75925,1.42035 1.2146,4.65301 1.2146,7.05359 0,2.40057 -2.12581,5.78234 -1.2146,7.34979 0.91122,1.56744 4.30317,2.69214 6.6819,2.05499 2.37872,-0.63715 7.08464,-3.625 7.59045,-5.87799 z" />
  <path
     style="stroke:#bf9000;stroke-width:2;stroke-linecap:butt;stroke-linejoin:round"
     inkscape:connector-curvature="0"
     id="path4143"
     d="m 127.03667,494.41121 c 0.50581,-2.25299 -3.1385,-5.63165 -4.55554,-7.63989 -1.41704,-2.00818 -2.3272,-3.91913 -3.94666,-4.40924 -1.61947,-0.49012 -5.01088,0.0483 -5.77015,1.46875 -0.75925,1.42035 1.2146,4.65301 1.2146,7.05359 0,2.40057 -2.12581,5.78234 -1.2146,7.34979 0.91122,1.56744 4.30317,2.69214 6.6819,2.05499 2.37872,-0.63715 7.08464,-3.625 7.59045,-5.87799 z" />
  <path
     style="fill:#f1d743;fill-rule:nonzero"
     inkscape:connector-curvature="0"
     id="path4145"
     d="m 77.239443,457.38316 c 2.226769,0.0977 6.072464,2.74152 8.805054,2.93744 2.732582,0.19598 6.274366,-2.59491 7.590456,-1.76184 1.31608,0.83313 0.96381,3.91968 0.30604,6.7605 -0.65778,2.84076 -2.12688,7.24743 -4.2527,10.28418 -2.125813,3.03668 -6.022527,7.34826 -8.502202,7.93603 -2.479675,0.58783 -4.301041,-2.20514 -6.375847,-4.40924 -2.074814,-2.2041 -5.718613,-5.58282 -6.073006,-8.81549 -0.354385,-3.23261 2.529625,-8.42511 3.946656,-10.58038 1.41703,-2.15528 2.328781,-2.44892 4.555549,-2.3512 z" />
  <path
     style="stroke:#bf9000;stroke-width:2;stroke-linecap:butt;stroke-linejoin:round"
     inkscape:connector-curvature="0"
     id="path4147"
     d="m 77.239443,457.38316 c 2.226769,0.0977 6.072464,2.74152 8.805054,2.93744 2.732582,0.19598 6.274366,-2.59491 7.590456,-1.76184 1.31608,0.83313 0.96381,3.91968 0.30604,6.7605 -0.65778,2.84076 -2.12688,7.24743 -4.2527,10.28418 -2.125813,3.03668 -6.022527,7.34826 -8.502202,7.93603 -2.479675,0.58783 -4.301041,-2.20514 -6.375847,-4.40924 -2.074814,-2.2041 -5.718613,-5.58282 -6.073006,-8.81549 -0.354385,-3.23261 2.529625,-8.42511 3.946656,-10.58038 1.41703,-2.15528 2.328781,-2.44892 4.555549,-2.3512 z" />
  <path
     style="fill:#f1d743;fill-rule:nonzero"
     inkscape:connector-curvature="0"
     id="path4149"
     d="m 86.045093,435.9297 c 3.54232,-0.53894 8.04686,-1.07843 9.7168,0.29309 1.66994,1.37158 0.96063,5.04596 0.30285,7.9361 -0.65777,2.89013 -2.27617,6.95587 -4.2495,9.40478 -1.97333,2.44892 -5.161256,4.40723 -7.590455,5.2887 -2.429199,0.88141 -4.555549,0.97967 -6.984749,0 -2.429199,-0.97968 -7.135109,-2.64539 -7.590454,-5.87799 -0.455337,-3.23267 2.125817,-10.67713 4.858399,-13.51789 2.73259,-2.84075 7.994789,-2.98785 11.537109,-3.52679 z" />
  <path
     style="stroke:#bf9000;stroke-width:2;stroke-linecap:butt;stroke-linejoin:round"
     inkscape:connector-curvature="0"
     id="path4151"
     d="m 86.045093,435.9297 c 3.54232,-0.53894 8.04686,-1.07843 9.7168,0.29309 1.66994,1.37158 0.96063,5.04596 0.30285,7.9361 -0.65777,2.89013 -2.27617,6.95587 -4.2495,9.40478 -1.97333,2.44892 -5.161256,4.40723 -7.590455,5.2887 -2.429199,0.88141 -4.555549,0.97967 -6.984749,0 -2.429199,-0.97968 -7.135109,-2.64539 -7.590454,-5.87799 -0.455337,-3.23267 2.125817,-10.67713 4.858399,-13.51789 2.73259,-2.84075 7.994789,-2.98785 11.537109,-3.52679 z" />
  <path
     style="fill:#f1d743;fill-rule:nonzero"
     inkscape:connector-curvature="0"
     id="path4153"
     d="m 87.560287,418.58696 c 2.226756,1.7634 5.263796,4.94821 5.770146,7.93607 0.50635,2.98785 5.3e-4,7.73809 -2.73205,9.99108 -2.732592,2.25293 -10.829394,4.5553 -13.663454,3.5268 -2.834069,-1.02857 -3.846772,-5.68158 -3.34095,-9.69794 0.505821,-4.01639 4.048134,-12.44101 6.375854,-14.40033 2.327713,-1.95935 5.363686,0.88092 7.590454,2.64432 z" />
  <path
     style="stroke:#bf9000;stroke-width:2;stroke-linecap:butt;stroke-linejoin:round"
     inkscape:connector-curvature="0"
     id="path4155"
     d="m 87.560287,418.58696 c 2.226756,1.7634 5.263796,4.94821 5.770146,7.93607 0.50635,2.98785 5.3e-4,7.73809 -2.73205,9.99108 -2.732592,2.25293 -10.829394,4.5553 -13.663454,3.5268 -2.834069,-1.02857 -3.846772,-5.68158 -3.34095,-9.69794 0.505821,-4.01639 4.048134,-12.44101 6.375854,-14.40033 2.327713,-1.95935 5.363686,0.88092 7.590454,2.64432 z" />
  <path
     style="fill:#f1d743;fill-rule:nonzero"
     inkscape:connector-curvature="0"
     id="path4157"
     d="m 71.770253,424.75981 c 0.05047,-3.42908 2.175758,-9.40582 2.429199,-13.81406 0.253441,-4.40823 -1.667816,-9.74575 -0.908562,-12.63537 0.759255,-2.88965 3.338822,-4.65305 5.464104,-4.70243 2.12529,-0.0493 5.870567,4.79807 7.287605,4.40619 1.417031,-0.39184 0.354386,-4.40619 1.2146,-6.75738 0.860207,-2.3512 2.124748,-5.83121 3.946644,-7.34982 1.8219,-1.51859 5.6182,-2.49674 6.98475,-1.76185 1.36656,0.73487 0.10095,5.68155 1.2146,6.17112 1.113647,0.48959 3.645397,-1.81327 5.467297,-3.23365 1.82189,-1.42041 3.03491,-4.40722 5.46411,-5.28866 2.4292,-0.88144 6.78284,-0.34302 9.11108,0 2.32826,0.34302 4.50455,0.14758 4.85841,2.05807 0.35386,1.91046 -0.0526,7.10297 -2.73524,9.40479 -2.68265,2.30185 -12.29796,3.32883 -13.3606,4.40619 -1.06265,1.07739 6.37745,0.63717 6.98475,2.05807 0.6073,1.4209 -1.62053,4.70395 -3.34095,6.46735 -1.72042,1.7634 -4.60337,3.57461 -6.98156,4.11307 -2.37819,0.53842 -6.730777,-1.66623 -7.287597,-0.88248 -0.55683,0.78372 4.655427,3.38022 3.946647,5.58487 -0.70878,2.20462 -5.365277,5.92837 -8.199337,7.64294 -2.83407,1.71454 -5.566129,0.83206 -8.805059,2.64432 -3.238929,1.81226 -8.502731,7.98441 -10.628548,8.22919 -2.125816,0.24481 -2.176819,-3.33136 -2.126343,-6.76047 z" />
  <path
     style="stroke:#bf9000;stroke-width:2;stroke-linecap:butt;stroke-linejoin:round"
     inkscape:connector-curvature="0"
     id="path4159"
     d="m 71.770253,424.75981 c 0.05047,-3.42908 2.175758,-9.40582 2.429199,-13.81406 0.253441,-4.40823 -1.667816,-9.74575 -0.908562,-12.63537 0.759255,-2.88965 3.338822,-4.65305 5.464104,-4.70243 2.12529,-0.0493 5.870567,4.79807 7.287605,4.40619 1.417031,-0.39184 0.354386,-4.40619 1.2146,-6.75738 0.860207,-2.3512 2.124748,-5.83121 3.946644,-7.34982 1.8219,-1.51859 5.6182,-2.49674 6.98475,-1.76185 1.36656,0.73487 0.10095,5.68155 1.2146,6.17112 1.113647,0.48959 3.645397,-1.81327 5.467297,-3.23365 1.82189,-1.42041 3.03491,-4.40722 5.46411,-5.28866 2.4292,-0.88144 6.78284,-0.34302 9.11108,0 2.32826,0.34302 4.50455,0.14758 4.85841,2.05807 0.35386,1.91046 -0.0526,7.10297 -2.73524,9.40479 -2.68265,2.30185 -12.29796,3.32883 -13.3606,4.40619 -1.06265,1.07739 6.37745,0.63717 6.98475,2.05807 0.6073,1.4209 -1.62053,4.70395 -3.34095,6.46735 -1.72042,1.7634 -4.60337,3.57461 -6.98156,4.11307 -2.37819,0.53842 -6.730777,-1.66623 -7.287597,-0.88248 -0.55683,0.78372 4.655427,3.38022 3.946647,5.58487 -0.70878,2.20462 -5.365277,5.92837 -8.199337,7.64294 -2.83407,1.71454 -5.566129,0.83206 -8.805059,2.64432 -3.238929,1.81226 -8.502731,7.98441 -10.628548,8.22919 -2.125816,0.24481 -2.176819,-3.33136 -2.126343,-6.76047 z" />
  <path
     style="fill:#f1d743;fill-rule:nonzero"
     inkscape:connector-curvature="0"
     id="path4161"
     d="m 75.721153,477.95306 c 0.506355,-2.10638 -1.619995,-7.10193 -0.911743,-9.69794 0.708252,-2.59594 3.896179,-2.98785 5.161255,-5.87799 1.265076,-2.89013 3.339882,-9.50354 2.429199,-11.46289 -0.91069,-1.95929 -7.286011,0.58832 -7.89331,-0.29309 -0.6073,-0.88147 2.832473,-3.03619 4.249511,-4.99554 1.417031,-1.95935 4.5056,-3.91919 4.252693,-6.7605 -0.252914,-2.84125 -5.010895,-7.25052 -5.770149,-10.28723 -0.759254,-3.03672 1.973854,-6.0719 1.2146,-7.93299 -0.759255,-1.86111 -3.138512,-4.11511 -5.770149,-3.23367 -2.63163,0.88144 -8.197754,6.02405 -10.019653,8.52231 -1.8219,2.49829 -5.27e-4,5.19354 -0.911743,6.46734 -0.911217,1.27384 -3.644867,0 -4.55555,1.1756 -0.910683,1.1756 -1.718292,3.03723 -0.908554,5.87799 0.80973,2.84082 5.766952,9.25672 5.766952,11.16669 0,1.90997 -4.704315,-0.88251 -5.766952,0.29309 -1.062645,1.1756 -1.570061,3.77216 -0.608894,6.7605 0.961158,2.98834 4.806862,7.69177 6.375847,11.16974 1.568992,3.47796 1.418632,7.68976 3.038093,9.69794 1.619469,2.00817 4.907288,2.4494 6.678711,2.35119 1.771424,-0.0982 3.443489,-0.8341 3.949836,-2.94055 z" />
  <path
     style="stroke:#bf9000;stroke-width:2;stroke-linecap:butt;stroke-linejoin:round"
     inkscape:connector-curvature="0"
     id="path4163"
     d="m 75.721153,477.95306 c 0.506355,-2.10638 -1.619995,-7.10193 -0.911743,-9.69794 0.708252,-2.59594 3.896179,-2.98785 5.161255,-5.87799 1.265076,-2.89013 3.339882,-9.50354 2.429199,-11.46289 -0.91069,-1.95929 -7.286011,0.58832 -7.89331,-0.29309 -0.6073,-0.88147 2.832473,-3.03619 4.249511,-4.99554 1.417031,-1.95935 4.5056,-3.91919 4.252693,-6.7605 -0.252914,-2.84125 -5.010895,-7.25052 -5.770149,-10.28723 -0.759254,-3.03672 1.973854,-6.0719 1.2146,-7.93299 -0.759255,-1.86111 -3.138512,-4.11511 -5.770149,-3.23367 -2.63163,0.88144 -8.197754,6.02405 -10.019653,8.52231 -1.8219,2.49829 -5.27e-4,5.19354 -0.911743,6.46734 -0.911217,1.27384 -3.644867,0 -4.55555,1.1756 -0.910683,1.1756 -1.718292,3.03723 -0.908554,5.87799 0.80973,2.84082 5.766952,9.25672 5.766952,11.16669 0,1.90997 -4.704315,-0.88251 -5.766952,0.29309 -1.062645,1.1756 -1.570061,3.77216 -0.608894,6.7605 0.961158,2.98834 4.806862,7.69177 6.375847,11.16974 1.568992,3.47796 1.418632,7.68976 3.038093,9.69794 1.619469,2.00817 4.907288,2.4494 6.678711,2.35119 1.771424,-0.0982 3.443489,-0.8341 3.949836,-2.94055 z" />
  <path
     style="fill:#f1d743;fill-rule:nonzero"
     inkscape:connector-curvature="0"
     id="path4165"
     d="m 101.22944,496.17656 c 3.03651,-3.03674 0.85809,-7.54315 -0.30604,-10.58038 -1.164117,-3.03723 -4.148547,-6.95691 -6.678697,-7.64295 -2.53015,-0.68603 -6.224962,4.11457 -8.502206,3.5268 -2.277237,-0.58783 -3.23787,-5.68207 -5.161248,-7.05359 -1.923385,-1.37158 -4.759575,-1.56751 -6.379043,-1.1756 -1.619469,0.39185 -1.819779,3.47742 -3.337761,3.52679 -1.517983,0.0494 -3.188988,-2.59393 -5.770149,-3.23059 -2.581154,-0.63665 -7.99585,-1.47082 -9.716797,-0.58935 -1.720947,0.88147 -1.570587,4.11462 -0.608894,5.87799 0.961692,1.76343 6.277557,3.72272 6.379043,4.70239 0.101479,0.97968 -4.606026,0.24481 -5.770149,1.1756 -1.164123,0.93085 -2.631634,2.98889 -1.214599,4.4093 1.41703,1.42035 6.123474,3.62348 9.716797,4.11304 3.59333,0.48956 10.730034,-1.66571 11.843147,-1.1756 1.113121,0.49011 -4.708565,2.64636 -5.164437,4.11615 -0.455879,1.46973 0.404862,3.42908 2.429199,4.70239 2.024331,1.27332 5.009827,3.72119 9.716797,2.93744 4.706978,-0.78369 15.48854,-4.60315 18.525037,-7.63983 z" />
  <path
     style="stroke:#bf9000;stroke-width:2;stroke-linecap:butt;stroke-linejoin:round"
     inkscape:connector-curvature="0"
     id="path4167"
     d="m 101.22944,496.17656 c 3.03651,-3.03674 0.85809,-7.54315 -0.30604,-10.58038 -1.164117,-3.03723 -4.148547,-6.95691 -6.678697,-7.64295 -2.53015,-0.68603 -6.224962,4.11457 -8.502206,3.5268 -2.277237,-0.58783 -3.23787,-5.68207 -5.161248,-7.05359 -1.923385,-1.37158 -4.759575,-1.56751 -6.379043,-1.1756 -1.619469,0.39185 -1.819779,3.47742 -3.337761,3.52679 -1.517983,0.0494 -3.188988,-2.59393 -5.770149,-3.23059 -2.581154,-0.63665 -7.99585,-1.47082 -9.716797,-0.58935 -1.720947,0.88147 -1.570587,4.11462 -0.608894,5.87799 0.961692,1.76343 6.277557,3.72272 6.379043,4.70239 0.101479,0.97968 -4.606026,0.24481 -5.770149,1.1756 -1.164123,0.93085 -2.631634,2.98889 -1.214599,4.4093 1.41703,1.42035 6.123474,3.62348 9.716797,4.11304 3.59333,0.48956 10.730034,-1.66571 11.843147,-1.1756 1.113121,0.49011 -4.708565,2.64636 -5.164437,4.11615 -0.455879,1.46973 0.404862,3.42908 2.429199,4.70239 2.024331,1.27332 5.009827,3.72119 9.716797,2.93744 4.706978,-0.78369 15.48854,-4.60315 18.525037,-7.63983 z" />
  <path
     style="fill:#f1d743;fill-rule:nonzero"
     inkscape:connector-curvature="0"
     id="path4169"
     d="m 141.30902,496.17656 c -1.31555,-1.07739 -3.89725,-0.24426 -5.77016,-1.46875 -1.87289,-1.22443 -3.94877,-4.5553 -5.46728,-5.87799 -1.51853,-1.32269 -2.1763,-2.89063 -3.6438,-2.05805 -1.46751,0.83259 -3.28888,5.92682 -5.16126,7.05359 -1.87237,1.12671 -4.09914,0.44178 -6.073,-0.29315 -1.97386,-0.73486 -3.99872,-3.96905 -5.77014,-4.11615 -1.77143,-0.14703 -2.53069,3.08661 -4.8584,3.23371 -2.32772,0.14709 -6.425807,-2.64484 -9.107907,-2.3512 -2.68211,0.29364 -5.71967,2.88861 -6.984751,4.11304 -1.265075,1.22448 0.558419,2.49878 -0.605705,3.2337 -1.164123,0.73486 -4.253219,0.0488 -6.379036,1.1756 -2.125816,1.12671 -5.718078,4.11511 -6.375854,5.58484 -0.657776,1.46978 0.404861,2.69476 2.429199,3.2337 2.02433,0.53894 8.147804,-0.73437 9.716797,0 1.568993,0.73431 -1.315018,3.3288 -0.302849,4.40619 1.012161,1.07733 4.199559,2.49878 6.375859,2.05804 2.17628,-0.44073 5.41681,-4.84948 6.681887,-4.70239 1.26507,0.1471 -0.457467,4.89887 0.90855,5.58484 1.36603,0.68604 5.00983,-0.29309 7.28761,-1.46869 2.27777,-1.1756 5.5693,-5.82965 6.37903,-5.5849 0.80974,0.24481 -2.38084,5.73096 -1.52063,7.05359 0.8602,1.32269 3.84782,1.71509 6.68189,0.88251 2.83406,-0.83258 7.03309,-4.31055 10.32251,-5.87799 3.28941,-1.56751 7.18718,-2.05707 9.41394,-3.5268 2.22677,-1.46978 3.64274,-3.57721 3.94665,-5.29175 0.30393,-1.71453 -0.8076,-3.91815 -2.12315,-4.99554 z" />
  <path
     style="stroke:#bf9000;stroke-width:2;stroke-linecap:butt;stroke-linejoin:round"
     inkscape:connector-curvature="0"
     id="path4171"
     d="m 141.30902,496.17656 c -1.31555,-1.07739 -3.89725,-0.24426 -5.77016,-1.46875 -1.87289,-1.22443 -3.94877,-4.5553 -5.46728,-5.87799 -1.51853,-1.32269 -2.1763,-2.89063 -3.6438,-2.05805 -1.46751,0.83259 -3.28888,5.92682 -5.16126,7.05359 -1.87237,1.12671 -4.09914,0.44178 -6.073,-0.29315 -1.97386,-0.73486 -3.99872,-3.96905 -5.77014,-4.11615 -1.77143,-0.14703 -2.53069,3.08661 -4.8584,3.23371 -2.32772,0.14709 -6.425807,-2.64484 -9.107907,-2.3512 -2.68211,0.29364 -5.71967,2.88861 -6.984751,4.11304 -1.265075,1.22448 0.558419,2.49878 -0.605705,3.2337 -1.164123,0.73486 -4.253219,0.0488 -6.379036,1.1756 -2.125816,1.12671 -5.718078,4.11511 -6.375854,5.58484 -0.657776,1.46978 0.404861,2.69476 2.429199,3.2337 2.02433,0.53894 8.147804,-0.73437 9.716797,0 1.568993,0.73431 -1.315018,3.3288 -0.302849,4.40619 1.012161,1.07733 4.199559,2.49878 6.375859,2.05804 2.17628,-0.44073 5.41681,-4.84948 6.681887,-4.70239 1.26507,0.1471 -0.457467,4.89887 0.90855,5.58484 1.36603,0.68604 5.00983,-0.29309 7.28761,-1.46869 2.27777,-1.1756 5.5693,-5.82965 6.37903,-5.5849 0.80974,0.24481 -2.38084,5.73096 -1.52063,7.05359 0.8602,1.32269 3.84782,1.71509 6.68189,0.88251 2.83406,-0.83258 7.03309,-4.31055 10.32251,-5.87799 3.28941,-1.56751 7.18718,-2.05707 9.41394,-3.5268 2.22677,-1.46978 3.64274,-3.57721 3.94665,-5.29175 0.30393,-1.71453 -0.8076,-3.91815 -2.12315,-4.99554 z" />
  <path
     style="fill:#000000;fill-opacity:0;fill-rule:nonzero"
     inkscape:connector-curvature="0"
     id="path4173"
     d="m 143.13039,499.99736 c -1.41704,0.34302 -4.95988,1.56799 -8.5022,2.05811 -3.54232,0.49005 -8.65257,1.02954 -12.75171,0.88244 -4.09913,-0.14703 -6.63035,-1.61786 -11.84314,-1.76495 -5.21279,-0.14704 -16.194667,0.73541 -19.433597,0.88251" />
  <path
     style="stroke:#bf9000;stroke-width:2;stroke-linecap:butt;stroke-linejoin:round"
     inkscape:connector-curvature="0"
     id="path4175"
     d="m 143.13039,499.99736 c -1.41704,0.34302 -4.95988,1.56799 -8.5022,2.05811 -3.54232,0.49005 -8.65257,1.02954 -12.75171,0.88244 -4.09913,-0.14703 -6.63035,-1.61786 -11.84314,-1.76495 -5.21279,-0.14704 -16.194667,0.73541 -19.433597,0.88251" />
  <path
     style="fill:#000000;fill-opacity:0;fill-rule:nonzero"
     inkscape:connector-curvature="0"
     id="path4177"
     d="m 91.511493,491.76816 c -0.96169,-0.44073 -3.037033,-1.56696 -5.770149,-2.64429 -2.733116,-1.07739 -7.38961,-2.49725 -10.628548,-3.81994 -3.23893,-1.3227 -7.337547,-3.43012 -8.805054,-4.11615" />
  <path
     style="stroke:#bf9000;stroke-width:2;stroke-linecap:butt;stroke-linejoin:round"
     inkscape:connector-curvature="0"
     id="path4179"
     d="m 91.511493,491.76816 c -0.96169,-0.44073 -3.037033,-1.56696 -5.770149,-2.64429 -2.733116,-1.07739 -7.38961,-2.49725 -10.628548,-3.81994 -3.23893,-1.3227 -7.337547,-3.43012 -8.805054,-4.11615" />
  <path
     style="fill:#000000;fill-opacity:0;fill-rule:nonzero"
     inkscape:connector-curvature="0"
     id="path4181"
     d="m 68.128043,475.01662 c -0.151421,-1.07788 -0.908554,-3.43011 -0.908554,-6.46735 0,-3.03723 0.858078,-6.90704 0.908554,-11.75598 0.05048,-4.849 -1.010567,-12.39062 -0.605705,-17.33777 0.404869,-4.9472 2.529091,-10.28781 3.034904,-12.34536" />
  <path
     style="stroke:#bf9000;stroke-width:2;stroke-linecap:butt;stroke-linejoin:round"
     inkscape:connector-curvature="0"
     id="path4183"
     d="m 68.128043,475.01662 c -0.151421,-1.07788 -0.908554,-3.43011 -0.908554,-6.46735 0,-3.03723 0.858078,-6.90704 0.908554,-11.75598 0.05048,-4.849 -1.010567,-12.39062 -0.605705,-17.33777 0.404869,-4.9472 2.529091,-10.28781 3.034904,-12.34536" />
  <path
     style="fill:#000000;fill-opacity:0;fill-rule:nonzero"
     inkscape:connector-curvature="0"
     id="path4185"
     d="m 76.936287,418.29469 c 0.657776,-0.88196 1.922318,-2.89117 3.946655,-5.29175 2.02433,-2.40057 4.757981,-5.78079 8.199348,-9.11166 3.441363,-3.33087 8.602613,-8.03275 12.44885,-10.87354 3.84623,-2.84076 8.85712,-5.14261 10.62855,-6.17111" />
  <path
     style="stroke:#bf9000;stroke-width:2;stroke-linecap:butt;stroke-linejoin:round"
     inkscape:connector-curvature="0"
     id="path4187"
     d="m 76.936287,418.29469 c 0.657776,-0.88196 1.922318,-2.89117 3.946655,-5.29175 2.02433,-2.40057 4.757981,-5.78079 8.199348,-9.11166 3.441363,-3.33087 8.602613,-8.03275 12.44885,-10.87354 3.84623,-2.84076 8.85712,-5.14261 10.62855,-6.17111" />
  <path
     style="fill:#bf9000;fill-rule:nonzero"
     inkscape:connector-curvature="0"
     id="path4189"
     d="m 85.438223,476.63326 c -0.101486,0.57544 1.70607,-1.56903 2.579033,-2.94055 0.872955,-1.37152 2.025927,-3.28046 2.658727,-5.28864 0.63281,-2.00818 1.18856,-5.93969 1.13809,-6.7605 -0.0505,-0.82073 -0.90963,0.4032 -1.44094,1.83594 -0.53132,1.43274 -0.924503,4.56818 -1.746983,6.76044 -0.822487,2.19232 -3.086448,5.81787 -3.187927,6.39331 z" />
  <path
     style="fill:#bf9000;fill-rule:nonzero"
     inkscape:connector-curvature="0"
     id="path4191"
     d="m 87.944199,453.85516 c 0.822487,-0.56366 1.935604,-1.25073 2.808564,-2.57336 0.87296,-1.3227 1.8219,-3.29334 2.4292,-5.36274 0.6073,-2.06939 1.22735,-5.84149 1.2146,-7.05359 -0.0127,-1.21209 -0.83524,-1.23529 -1.29111,-0.21911 -0.45588,1.01623 -0.22953,3.64667 -1.44413,6.31616 -1.21461,2.66956 -5.223952,8.21893 -5.843475,9.70105 -0.619514,1.48206 1.303864,-0.24481 2.126351,-0.80841 z" />
  <path
     style="fill:#bf9000;fill-rule:nonzero"
     inkscape:connector-curvature="0"
     id="path4193"
     d="m 89.763743,424.02526 c 0.32889,0.25711 1.26402,0.90509 1.44094,2.20309 0.17693,1.29798 0.0505,4.07859 -0.37936,5.58487 -0.42984,1.50626 -1.377719,2.6937 -2.199672,3.45273 -0.821953,0.75904 -2.732048,1.40753 -2.732048,1.10156 0,-0.30596 2.011047,-1.60296 2.732048,-2.93746 0.721001,-1.33451 1.493012,-3.61216 1.593962,-5.06958 0.10095,-1.4574 -0.912276,-2.95237 -0.988257,-3.6749 -0.07597,-0.72254 0.203499,-0.91745 0.532387,-0.66031 z" />
  <path
     style="fill:#bf9000;fill-rule:nonzero"
     inkscape:connector-curvature="0"
     id="path4195"
     d="m 90.902693,419.47029 c 0.0383,0.15891 1.81127,-0.77344 3.1146,-1.83899 1.30333,-1.06555 4.00988,-3.46457 4.70538,-4.55429 0.6955,-1.08972 -0.29169,-1.95935 -0.53238,-1.98401 -0.24069,-0.0247 -0.178,0.90509 -0.91175,1.83591 -0.73375,0.93081 -2.42813,2.65872 -3.49078,3.74896 -1.06264,1.09021 -2.92332,2.63351 -2.88507,2.79242 z" />
  <path
     style="fill:#bf9000;fill-rule:nonzero"
     inkscape:connector-curvature="0"
     id="path4197"
     d="m 102.44207,405.94789 c -0.11423,0.23297 1.22575,0.67368 2.19967,0.44122 0.97391,-0.23242 2.22677,-0.5744 3.6438,-1.8359 1.41704,-1.26148 4.31433,-4.7533 4.8584,-5.73297 0.54407,-0.97968 -0.91069,-0.78168 -1.59397,-0.14502 -0.68327,0.63665 -1.46856,2.91226 -2.5057,3.96493 -1.03714,1.0527 -2.61676,1.79993 -3.71713,2.35123 -1.10036,0.55127 -2.77084,0.72354 -2.88507,0.95651 z" />
  <path
     style="fill:#bf9000;fill-rule:nonzero"
     inkscape:connector-curvature="0"
     id="path4199"
     d="m 111.62747,392.43114 c 0.27841,0.0612 3.79523,-0.67575 5.23776,-1.10464 1.44253,-0.4289 2.5445,-0.59964 3.41746,-1.46872 0.87296,-0.86911 1.47867,-2.5091 1.8203,-3.74588 0.34164,-1.23679 0.53293,-2.97654 0.22954,-3.6749 -0.3034,-0.69836 -1.85962,-0.83362 -2.04984,-0.51529 -0.19022,0.31833 0.99728,1.2738 0.90855,2.42523 -0.0887,1.15143 -0.44152,3.38129 -1.44093,4.48334 -0.99942,1.10205 -3.20174,1.5289 -4.55555,2.12903 -1.35381,0.60016 -3.8457,1.41061 -3.56729,1.47183 z" />
  <path
     style="fill:#bf9000;fill-rule:nonzero"
     inkscape:connector-curvature="0"
     id="path4201"
     d="m 96.140093,384.05446 c 0.0887,-0.0982 0.41815,0.30493 0.53239,1.0275 0.11423,0.72253 0.24174,3.20947 0.15301,3.3077 -0.0887,0.0982 -0.57117,-1.99584 -0.6854,-2.71838 -0.11423,-0.72253 -0.0887,-1.51861 0,-1.61682 z" />
  <path
     style="fill:#bf9000;fill-rule:nonzero"
     inkscape:connector-curvature="0"
     id="path4203"
     d="m 72.836213,419.39746 c 0.02551,-0.13474 1.126938,-0.40524 1.746986,-0.14813 0.620049,0.25714 1.834656,0.77243 1.973328,1.69089 0.138672,0.91848 -1.039795,3.73458 -1.141281,3.81994 -0.101479,0.0854 0.696564,-2.52399 0.532387,-3.30774 -0.164177,-0.78372 -0.998886,-1.05215 -1.517456,-1.39465 -0.51857,-0.3425 -1.619461,-0.52557 -1.593964,-0.66031 z" />
  <path
     style="fill:#bf9000;fill-rule:nonzero"
     inkscape:connector-curvature="0"
     id="path4205"
     d="m 76.251013,431.73903 c 0.07598,-0.2695 3.113541,3.8338 3.796822,5.21765 0.683281,1.38391 1.213539,1.39575 0.302856,3.08557 -0.91069,1.68988 -5.311623,6.69824 -5.76696,7.05359 -0.455345,0.35541 2.200195,-3.50104 3.034905,-4.92145 0.834701,-1.42041 2.201263,-1.86163 1.973327,-3.60083 -0.227936,-1.73925 -3.416931,-6.56506 -3.34095,-6.83453 z" />
  <path
     style="fill:#bf9000;fill-rule:nonzero"
     inkscape:connector-curvature="0"
     id="path4207"
     d="m 76.860939,452.60652 c -0.03825,-0.38007 1.656128,-0.5282 2.276177,-0.58936 0.620056,-0.0612 1.31768,-0.53741 1.444137,0.22217 0.12645,0.75952 -0.179062,2.60883 -0.685409,4.33521 -0.506348,1.72638 -1.479729,4.65149 -2.352684,6.02301 -0.872963,1.37152 -2.872322,2.46332 -2.885079,2.20617 -0.01275,-0.25714 2.023804,-1.99792 2.808563,-3.74896 0.78476,-1.75104 2.000954,-5.34936 1.90001,-6.75738 -0.100953,-1.40802 -2.467461,-1.31086 -2.505715,-1.69086 z" />
  <path
     style="fill:#bf9000;fill-rule:nonzero"
     inkscape:connector-curvature="0"
     id="path4209"
     d="m 75.111733,475.09066 c 0.07597,-0.0982 2.835129,-0.038 3.796822,0.5863 0.961685,0.62427 1.404281,2.15528 1.97332,3.15961 0.569046,1.00433 1.681106,3.05005 1.440948,2.86646 -0.240158,-0.1836 -2.236862,-3.06189 -2.881889,-3.96802 -0.64502,-0.90613 -0.266724,-1.02802 -0.988259,-1.46875 -0.721534,-0.44068 -3.416923,-1.07733 -3.340942,-1.1756 z" />
  <path
     style="fill:#bf9000;fill-rule:nonzero"
     inkscape:connector-curvature="0"
     id="path4211"
     d="m 89.158798,482.87746 c -0.265663,-0.18359 2.908985,-2.33887 3.870145,-2.71838 0.96115,-0.37952 1.06158,-0.2566 1.89682,0.44122 0.83523,0.69788 2.25386,2.30133 3.1146,3.74591 0.86074,1.44458 2.075337,4.65198 2.049827,4.92145 -0.0255,0.26947 -1.291637,-1.9701 -2.202857,-3.30463 -0.91121,-1.33447 -1.80967,-4.18811 -3.26443,-4.70239 -1.45476,-0.51428 -5.198442,1.80041 -5.464105,1.61682 z" />
  <path
     style="fill:#bf9000;fill-rule:nonzero"
     inkscape:connector-curvature="0"
     id="path4213"
     d="m 79.211868,488.90166 c 0.291168,-0.0494 7.35083,2.28949 8.502197,3.08557 1.151375,0.79602 -1.277824,0.98016 -1.593956,1.69086 -0.316139,0.71069 0.152489,2.1203 -0.302856,2.57336 -0.455346,0.45307 -2.30275,0.21857 -2.4292,0.14502 -0.126457,-0.0735 1.341584,-0.0108 1.670472,-0.58624 0.328887,-0.5755 0.151428,-2.27869 0.302856,-2.86652 0.151421,-0.58777 1.630623,0.0134 0.605705,-0.66027 -1.024917,-0.67371 -7.046379,-3.33246 -6.755218,-3.38178 z" />
  <path
     style="fill:#bf9000;fill-rule:nonzero"
     inkscape:connector-curvature="0"
     id="path4215"
     d="m 117.54881,484.19946 c -0.18968,-0.47772 1.64709,1.56848 2.35587,2.49933 0.70879,0.93078 1.8846,2.15472 1.89682,3.08557 0.0122,0.93079 -1.69703,2.53583 -1.8235,2.49927 -0.12645,-0.0365 1.46964,-1.37097 1.06478,-2.71839 -0.40487,-1.34735 -3.3043,-4.888 -3.49397,-5.36578 z" />
  <path
     style="fill:#bf9000;fill-rule:nonzero"
     inkscape:connector-curvature="0"
     id="path4217"
     d="m 127.11399,488.60876 c 0.11369,-0.0488 1.75813,1.78961 2.73204,2.94055 0.97392,1.15094 1.99777,2.97345 3.11142,3.96497 1.11365,0.99145 2.44408,1.56744 3.57048,1.98401 1.1264,0.41656 3.06148,0.18463 3.18793,0.51526 0.12645,0.33068 -1.22682,1.12573 -2.4292,1.46875 -1.20238,0.34301 -4.59487,0.71173 -4.78508,0.58935 -0.19022,-0.12237 3.54231,-0.82178 3.6438,-1.32373 0.10148,-0.50189 -1.87131,-0.53687 -3.0349,-1.68781 -1.1636,-1.15087 -2.94725,-3.80908 -3.94666,-5.21765 -0.99942,-1.40857 -2.16354,-3.18481 -2.04983,-3.2337 z" />
  <path
     style="fill:#bf9000;fill-rule:nonzero"
     inkscape:connector-curvature="0"
     id="path4219"
     d="m 109.35045,491.54921 c 0.31614,0.0242 1.66782,1.44299 2.50253,2.05499 0.8347,0.61194 2.82184,1.64099 2.50571,1.61682 -0.31614,-0.0242 -3.56783,-1.1499 -4.40253,-1.76184 -0.83471,-0.612 -0.92184,-1.93414 -0.60571,-1.90997 z" />
  <path
     style="fill:#bf9000;fill-rule:nonzero"
     inkscape:connector-curvature="0"
     id="path4221"
     d="m 109.50069,509.69551 c 0.0505,0.0735 -1.4808,1.87402 -2.50571,2.42529 -1.02492,0.55127 -3.59333,0.956 -3.6438,0.88245 -0.0505,-0.0736 2.31602,-0.7724 3.34095,-1.32367 1.02491,-0.55133 2.75808,-2.05756 2.80856,-1.98407 z" />
  <path
     style="fill:#bf9000;fill-rule:nonzero"
     inkscape:connector-curvature="0"
     id="path4223"
     d="m 95.381823,509.99256 c -0.25344,0.36719 -2.65767,2.38568 -2.88507,2.42218 -0.22741,0.0365 1.03979,-1.79938 1.52064,-2.20312 0.48085,-0.40369 1.61787,-0.58625 1.36443,-0.21906 z" />
  <path
     style="fill:#bf9000;fill-rule:nonzero"
     inkscape:connector-curvature="0"
     id="path4225"
     d="m 115.49692,514.10516 c -0.27842,0.29364 1.73316,0.72101 3.26442,0.21912 1.53128,-0.50196 5.64476,-2.93695 5.92317,-3.23059 0.27842,-0.29364 -2.72142,0.96679 -4.25268,1.46868 -1.53128,0.50196 -4.6565,1.24915 -4.93491,1.54279 z" />
  <path
     style="fill:#bf9000;fill-rule:nonzero"
     inkscape:connector-curvature="0"
     id="path4227"
     d="m 65.624428,471.4905 c 0.176933,0.0977 -0.69709,-4.10333 -0.608894,-6.02612 0.0882,-1.92285 0.998886,-3.18433 1.138092,-5.51081 0.139206,-2.32653 -0.13868,-8.11761 -0.302857,-8.4483 -0.164177,-0.33069 -0.366081,4.23547 -0.682213,6.46423 -0.316139,2.22883 -1.29058,4.65509 -1.214599,6.90863 0.07597,2.25348 1.493538,6.51465 1.670471,6.61237 z" />
  <path
     style="fill:#bf9000;fill-rule:nonzero"
     inkscape:connector-curvature="0"
     id="path4229"
     d="m 76.326599,415.50226 c -0.01276,0.30597 1.530205,-2.59753 3.567284,-4.92456 2.037086,-2.32706 5.833374,-6.3316 8.655228,-9.03763 2.821842,-2.70605 8.478282,-7.18628 8.275852,-7.19861 -0.20243,-0.0124 -6.68136,4.72449 -9.490459,7.12455 -2.80909,2.40005 -5.529457,4.9364 -7.364105,7.27575 -1.834656,2.33939 -3.63105,6.4545 -3.6438,6.7605 z" />
  <path
     style="fill:#f1d743;fill-rule:nonzero"
     inkscape:connector-curvature="0"
     id="path4231"
     d="m 172.12256,494.41121 c -0.50583,-2.25299 3.1385,-5.63165 4.55554,-7.63989 1.41704,-2.00818 2.32718,-3.91913 3.94666,-4.40924 1.61946,-0.49012 5.01088,0.0483 5.77014,1.46875 0.75926,1.42035 -1.2146,4.65301 -1.2146,7.05359 0,2.40057 2.12582,5.78234 1.2146,7.34979 -0.91121,1.56744 -4.30316,2.69214 -6.6819,2.05499 -2.37872,-0.63715 -7.08463,-3.625 -7.59044,-5.87799 z" />
  <path
     style="stroke:#bf9000;stroke-width:2;stroke-linecap:butt;stroke-linejoin:round"
     inkscape:connector-curvature="0"
     id="path4233"
     d="m 172.12256,494.41121 c -0.50583,-2.25299 3.1385,-5.63165 4.55554,-7.63989 1.41704,-2.00818 2.32718,-3.91913 3.94666,-4.40924 1.61946,-0.49012 5.01088,0.0483 5.77014,1.46875 0.75926,1.42035 -1.2146,4.65301 -1.2146,7.05359 0,2.40057 2.12582,5.78234 1.2146,7.34979 -0.91121,1.56744 -4.30316,2.69214 -6.6819,2.05499 -2.37872,-0.63715 -7.08463,-3.625 -7.59044,-5.87799 z" />
  <path
     style="fill:#f1d743;fill-rule:nonzero"
     inkscape:connector-curvature="0"
     id="path4235"
     d="m 221.91979,457.38316 c -2.22676,0.0977 -6.07246,2.74152 -8.80505,2.93744 -2.73258,0.19598 -6.27437,-2.59491 -7.59044,-1.76184 -1.31609,0.83313 -0.96382,3.91968 -0.30605,6.7605 0.65778,2.84076 2.12688,7.24743 4.25269,10.28418 2.12582,3.03668 6.02253,7.34826 8.50221,7.93603 2.47968,0.58783 4.30104,-2.20514 6.37584,-4.40924 2.07481,-2.2041 5.71861,-5.58282 6.07301,-8.81549 0.35439,-3.23261 -2.52963,-8.42511 -3.94665,-10.58038 -1.41704,-2.15528 -2.32878,-2.44892 -4.55556,-2.3512 z" />
  <path
     style="stroke:#bf9000;stroke-width:2;stroke-linecap:butt;stroke-linejoin:round"
     inkscape:connector-curvature="0"
     id="path4237"
     d="m 221.91979,457.38316 c -2.22676,0.0977 -6.07246,2.74152 -8.80505,2.93744 -2.73258,0.19598 -6.27437,-2.59491 -7.59044,-1.76184 -1.31609,0.83313 -0.96382,3.91968 -0.30605,6.7605 0.65778,2.84076 2.12688,7.24743 4.25269,10.28418 2.12582,3.03668 6.02253,7.34826 8.50221,7.93603 2.47968,0.58783 4.30104,-2.20514 6.37584,-4.40924 2.07481,-2.2041 5.71861,-5.58282 6.07301,-8.81549 0.35439,-3.23261 -2.52963,-8.42511 -3.94665,-10.58038 -1.41704,-2.15528 -2.32878,-2.44892 -4.55556,-2.3512 z" />
  <path
     style="fill:#f1d743;fill-rule:nonzero"
     inkscape:connector-curvature="0"
     id="path4239"
     d="m 213.11414,435.9297 c -3.54231,-0.53894 -8.04686,-1.07843 -9.7168,0.29309 -1.66993,1.37158 -0.96063,5.04596 -0.30285,7.9361 0.65777,2.89013 2.27618,6.95587 4.24951,9.40478 1.97333,2.44892 5.16125,4.40723 7.59045,5.2887 2.4292,0.88141 4.55554,0.97967 6.98474,0 2.4292,-0.97968 7.13512,-2.64539 7.59046,-5.87799 0.45533,-3.23267 -2.12581,-10.67713 -4.8584,-13.51789 -2.73259,-2.84075 -7.99478,-2.98785 -11.53711,-3.52679 z" />
  <path
     style="stroke:#bf9000;stroke-width:2;stroke-linecap:butt;stroke-linejoin:round"
     inkscape:connector-curvature="0"
     id="path4241"
     d="m 213.11414,435.9297 c -3.54231,-0.53894 -8.04686,-1.07843 -9.7168,0.29309 -1.66993,1.37158 -0.96063,5.04596 -0.30285,7.9361 0.65777,2.89013 2.27618,6.95587 4.24951,9.40478 1.97333,2.44892 5.16125,4.40723 7.59045,5.2887 2.4292,0.88141 4.55554,0.97967 6.98474,0 2.4292,-0.97968 7.13512,-2.64539 7.59046,-5.87799 0.45533,-3.23267 -2.12581,-10.67713 -4.8584,-13.51789 -2.73259,-2.84075 -7.99478,-2.98785 -11.53711,-3.52679 z" />
  <path
     style="fill:#f1d743;fill-rule:nonzero"
     inkscape:connector-curvature="0"
     id="path4243"
     d="m 211.59894,418.58696 c -2.22676,1.7634 -5.26379,4.94821 -5.77014,7.93607 -0.50635,2.98785 -5.4e-4,7.73809 2.73205,9.99108 2.73259,2.25293 10.8294,4.5553 13.66346,3.5268 2.83406,-1.02857 3.84677,-5.68158 3.34094,-9.69794 -0.50582,-4.01639 -4.04813,-12.44101 -6.37586,-14.40033 -2.32771,-1.95935 -5.36367,0.88092 -7.59045,2.64432 z" />
  <path
     style="stroke:#bf9000;stroke-width:2;stroke-linecap:butt;stroke-linejoin:round"
     inkscape:connector-curvature="0"
     id="path4245"
     d="m 211.59894,418.58696 c -2.22676,1.7634 -5.26379,4.94821 -5.77014,7.93607 -0.50635,2.98785 -5.4e-4,7.73809 2.73205,9.99108 2.73259,2.25293 10.8294,4.5553 13.66346,3.5268 2.83406,-1.02857 3.84677,-5.68158 3.34094,-9.69794 -0.50582,-4.01639 -4.04813,-12.44101 -6.37586,-14.40033 -2.32771,-1.95935 -5.36367,0.88092 -7.59045,2.64432 z" />
  <path
     style="fill:#f1d743;fill-rule:nonzero"
     inkscape:connector-curvature="0"
     id="path4247"
     d="m 227.38898,424.75981 c -0.0505,-3.42908 -2.17577,-9.40582 -2.4292,-13.81406 -0.25343,-4.40823 1.66782,-9.74575 0.90855,-12.63537 -0.75924,-2.88965 -3.33882,-4.65305 -5.46409,-4.70243 -2.12529,-0.0493 -5.87058,4.79807 -7.28761,4.40619 -1.41703,-0.39184 -0.35439,-4.40619 -1.2146,-6.75738 -0.8602,-2.3512 -2.12474,-5.83121 -3.94664,-7.34982 -1.8219,-1.51859 -5.6182,-2.49674 -6.98476,-1.76185 -1.36656,0.73487 -0.10095,5.68155 -1.2146,6.17112 -1.11365,0.48959 -3.64539,-1.81327 -5.46728,-3.23365 -1.8219,-1.42041 -3.03492,-4.40722 -5.46412,-5.28866 -2.4292,-0.88144 -6.78285,-0.34302 -9.1111,0 -2.32824,0.34302 -4.50453,0.14758 -4.85839,2.05807 -0.35385,1.91046 0.0526,7.10297 2.73524,9.40479 2.68263,2.30185 12.29796,3.32883 13.3606,4.40619 1.06265,1.07739 -6.37744,0.63717 -6.98474,2.05807 -0.6073,1.4209 1.62053,4.70395 3.34094,6.46735 1.72041,1.7634 4.60336,3.57461 6.98157,4.11307 2.37819,0.53842 6.73077,-1.66623 7.28759,-0.88248 0.55683,0.78372 -4.65544,3.38022 -3.94665,5.58487 0.70878,2.20462 5.36528,5.92837 8.19934,7.64294 2.83408,1.71454 5.56613,0.83206 8.80505,2.64432 3.23894,1.81226 8.50273,7.98441 10.62856,8.22919 2.12581,0.24481 2.17682,-3.33136 2.12634,-6.76047 z" />
  <path
     style="stroke:#bf9000;stroke-width:2;stroke-linecap:butt;stroke-linejoin:round"
     inkscape:connector-curvature="0"
     id="path4249"
     d="m 227.38898,424.75981 c -0.0505,-3.42908 -2.17577,-9.40582 -2.4292,-13.81406 -0.25343,-4.40823 1.66782,-9.74575 0.90855,-12.63537 -0.75924,-2.88965 -3.33882,-4.65305 -5.46409,-4.70243 -2.12529,-0.0493 -5.87058,4.79807 -7.28761,4.40619 -1.41703,-0.39184 -0.35439,-4.40619 -1.2146,-6.75738 -0.8602,-2.3512 -2.12474,-5.83121 -3.94664,-7.34982 -1.8219,-1.51859 -5.6182,-2.49674 -6.98476,-1.76185 -1.36656,0.73487 -0.10095,5.68155 -1.2146,6.17112 -1.11365,0.48959 -3.64539,-1.81327 -5.46728,-3.23365 -1.8219,-1.42041 -3.03492,-4.40722 -5.46412,-5.28866 -2.4292,-0.88144 -6.78285,-0.34302 -9.1111,0 -2.32824,0.34302 -4.50453,0.14758 -4.85839,2.05807 -0.35385,1.91046 0.0526,7.10297 2.73524,9.40479 2.68263,2.30185 12.29796,3.32883 13.3606,4.40619 1.06265,1.07739 -6.37744,0.63717 -6.98474,2.05807 -0.6073,1.4209 1.62053,4.70395 3.34094,6.46735 1.72041,1.7634 4.60336,3.57461 6.98157,4.11307 2.37819,0.53842 6.73077,-1.66623 7.28759,-0.88248 0.55683,0.78372 -4.65544,3.38022 -3.94665,5.58487 0.70878,2.20462 5.36528,5.92837 8.19934,7.64294 2.83408,1.71454 5.56613,0.83206 8.80505,2.64432 3.23894,1.81226 8.50273,7.98441 10.62856,8.22919 2.12581,0.24481 2.17682,-3.33136 2.12634,-6.76047 z" />
  <path
     style="fill:#f1d743;fill-rule:nonzero"
     inkscape:connector-curvature="0"
     id="path4251"
     d="m 223.43808,477.95306 c -0.50635,-2.10638 1.62,-7.10193 0.91174,-9.69794 -0.70825,-2.59594 -3.89618,-2.98785 -5.16125,-5.87799 -1.26508,-2.89013 -3.33989,-9.50354 -2.4292,-11.46289 0.91069,-1.95929 7.28601,0.58832 7.89331,-0.29309 0.6073,-0.88147 -2.83247,-3.03619 -4.24951,-4.99554 -1.41704,-1.95935 -4.5056,-3.91919 -4.2527,-6.7605 0.25291,-2.84125 5.01089,-7.25052 5.77015,-10.28723 0.75927,-3.03672 -1.97386,-6.0719 -1.2146,-7.93299 0.75925,-1.86111 3.13851,-4.11511 5.77015,-3.23367 2.63163,0.88144 8.19775,6.02405 10.01965,8.52231 1.8219,2.49829 5.3e-4,5.19354 0.91174,6.46734 0.91123,1.27384 3.64487,0 4.55556,1.1756 0.91067,1.1756 1.71829,3.03723 0.90855,5.87799 -0.80973,2.84082 -5.76695,9.25672 -5.76695,11.16669 0,1.90997 4.70432,-0.88251 5.76695,0.29309 1.06264,1.1756 1.57006,3.77216 0.60889,6.7605 -0.96115,2.98834 -4.80685,7.69177 -6.37584,11.16974 -1.569,3.47796 -1.41864,7.68976 -3.0381,9.69794 -1.61946,2.00817 -4.90729,2.4494 -6.67871,2.35119 -1.77142,-0.0982 -3.44348,-0.8341 -3.94983,-2.94055 z" />
  <path
     style="stroke:#bf9000;stroke-width:2;stroke-linecap:butt;stroke-linejoin:round"
     inkscape:connector-curvature="0"
     id="path4253"
     d="m 223.43808,477.95306 c -0.50635,-2.10638 1.62,-7.10193 0.91174,-9.69794 -0.70825,-2.59594 -3.89618,-2.98785 -5.16125,-5.87799 -1.26508,-2.89013 -3.33989,-9.50354 -2.4292,-11.46289 0.91069,-1.95929 7.28601,0.58832 7.89331,-0.29309 0.6073,-0.88147 -2.83247,-3.03619 -4.24951,-4.99554 -1.41704,-1.95935 -4.5056,-3.91919 -4.2527,-6.7605 0.25291,-2.84125 5.01089,-7.25052 5.77015,-10.28723 0.75927,-3.03672 -1.97386,-6.0719 -1.2146,-7.93299 0.75925,-1.86111 3.13851,-4.11511 5.77015,-3.23367 2.63163,0.88144 8.19775,6.02405 10.01965,8.52231 1.8219,2.49829 5.3e-4,5.19354 0.91174,6.46734 0.91123,1.27384 3.64487,0 4.55556,1.1756 0.91067,1.1756 1.71829,3.03723 0.90855,5.87799 -0.80973,2.84082 -5.76695,9.25672 -5.76695,11.16669 0,1.90997 4.70432,-0.88251 5.76695,0.29309 1.06264,1.1756 1.57006,3.77216 0.60889,6.7605 -0.96115,2.98834 -4.80685,7.69177 -6.37584,11.16974 -1.569,3.47796 -1.41864,7.68976 -3.0381,9.69794 -1.61946,2.00817 -4.90729,2.4494 -6.67871,2.35119 -1.77142,-0.0982 -3.44348,-0.8341 -3.94983,-2.94055 z" />
  <path
     style="fill:#f1d743;fill-rule:nonzero"
     inkscape:connector-curvature="0"
     id="path4255"
     d="m 197.92978,496.17656 c -3.0365,-3.03674 -0.85808,-7.54315 0.30605,-10.58038 1.16412,-3.03723 4.14854,-6.95691 6.67869,-7.64295 2.53015,-0.68603 6.22496,4.11457 8.50221,3.5268 2.27724,-0.58783 3.23787,-5.68207 5.16124,-7.05359 1.92339,-1.37158 4.75959,-1.56751 6.37905,-1.1756 1.61947,0.39185 1.81978,3.47742 3.33777,3.52679 1.51797,0.0494 3.18898,-2.59393 5.77014,-3.23059 2.58116,-0.63665 7.99585,-1.47082 9.71679,-0.58935 1.72095,0.88147 1.57059,4.11462 0.60891,5.87799 -0.9617,1.76343 -6.27756,3.72272 -6.37905,4.70239 -0.10148,0.97968 4.60602,0.24481 5.77014,1.1756 1.16413,0.93085 2.63163,2.98889 1.2146,4.4093 -1.41702,1.42035 -6.12347,3.62348 -9.71679,4.11304 -3.59333,0.48956 -10.73003,-1.66571 -11.84314,-1.1756 -1.11313,0.49011 4.70855,2.64636 5.16443,4.11615 0.45588,1.46973 -0.40487,3.42908 -2.4292,4.70239 -2.02433,1.27332 -5.00983,3.72119 -9.7168,2.93744 -4.70697,-0.78369 -15.48854,-4.60315 -18.52504,-7.63983 z" />
  <path
     style="stroke:#bf9000;stroke-width:2;stroke-linecap:butt;stroke-linejoin:round"
     inkscape:connector-curvature="0"
     id="path4257"
     d="m 197.92978,496.17656 c -3.0365,-3.03674 -0.85808,-7.54315 0.30605,-10.58038 1.16412,-3.03723 4.14854,-6.95691 6.67869,-7.64295 2.53015,-0.68603 6.22496,4.11457 8.50221,3.5268 2.27724,-0.58783 3.23787,-5.68207 5.16124,-7.05359 1.92339,-1.37158 4.75959,-1.56751 6.37905,-1.1756 1.61947,0.39185 1.81978,3.47742 3.33777,3.52679 1.51797,0.0494 3.18898,-2.59393 5.77014,-3.23059 2.58116,-0.63665 7.99585,-1.47082 9.71679,-0.58935 1.72095,0.88147 1.57059,4.11462 0.60891,5.87799 -0.9617,1.76343 -6.27756,3.72272 -6.37905,4.70239 -0.10148,0.97968 4.60602,0.24481 5.77014,1.1756 1.16413,0.93085 2.63163,2.98889 1.2146,4.4093 -1.41702,1.42035 -6.12347,3.62348 -9.71679,4.11304 -3.59333,0.48956 -10.73003,-1.66571 -11.84314,-1.1756 -1.11313,0.49011 4.70855,2.64636 5.16443,4.11615 0.45588,1.46973 -0.40487,3.42908 -2.4292,4.70239 -2.02433,1.27332 -5.00983,3.72119 -9.7168,2.93744 -4.70697,-0.78369 -15.48854,-4.60315 -18.52504,-7.63983 z" />
  <path
     style="fill:#f1d743;fill-rule:nonzero"
     inkscape:connector-curvature="0"
     id="path4259"
     d="m 157.85021,496.17656 c 1.31555,-1.07739 3.89725,-0.24426 5.77014,-1.46875 1.87291,-1.22443 3.94879,-4.5553 5.4673,-5.87799 1.51851,-1.32269 2.17629,-2.89063 3.6438,-2.05805 1.46751,0.83259 3.28888,5.92682 5.16126,7.05359 1.87237,1.12671 4.09913,0.44178 6.07299,-0.29315 1.97387,-0.73486 3.99872,-3.96905 5.77015,-4.11615 1.77142,-0.14703 2.53068,3.08661 4.85839,3.23371 2.32773,0.14709 6.42582,-2.64484 9.10791,-2.3512 2.68212,0.29364 5.71968,2.88861 6.98476,4.11304 1.26508,1.22448 -0.55843,2.49878 0.6057,3.2337 1.16412,0.73486 4.25323,0.0488 6.37904,1.1756 2.12581,1.12671 5.71808,4.11511 6.37586,5.58484 0.65777,1.46978 -0.40487,2.69476 -2.4292,3.2337 -2.02434,0.53894 -8.14782,-0.73437 -9.7168,0 -1.569,0.73431 1.31502,3.3288 0.30284,4.40619 -1.01216,1.07733 -4.19955,2.49878 -6.37585,2.05804 -2.17629,-0.44073 -5.41681,-4.84948 -6.68189,-4.70239 -1.26507,0.1471 0.45746,4.89887 -0.90855,5.58484 -1.36603,0.68604 -5.00983,-0.29309 -7.28762,-1.46869 -2.27777,-1.1756 -5.5693,-5.82965 -6.37902,-5.5849 -0.80974,0.24481 2.38084,5.73096 1.52063,7.05359 -0.8602,1.32269 -3.84783,1.71509 -6.68189,0.88251 -2.83407,-0.83258 -7.0331,-4.31055 -10.32251,-5.87799 -3.28941,-1.56751 -7.18718,-2.05707 -9.41394,-3.5268 -2.22678,-1.46978 -3.64274,-3.57721 -3.94665,-5.29175 -0.30393,-1.71453 0.8076,-3.91815 2.12315,-4.99554 z" />
  <path
     style="stroke:#bf9000;stroke-width:2;stroke-linecap:butt;stroke-linejoin:round"
     inkscape:connector-curvature="0"
     id="path4261"
     d="m 157.85021,496.17656 c 1.31555,-1.07739 3.89725,-0.24426 5.77014,-1.46875 1.87291,-1.22443 3.94879,-4.5553 5.4673,-5.87799 1.51851,-1.32269 2.17629,-2.89063 3.6438,-2.05805 1.46751,0.83259 3.28888,5.92682 5.16126,7.05359 1.87237,1.12671 4.09913,0.44178 6.07299,-0.29315 1.97387,-0.73486 3.99872,-3.96905 5.77015,-4.11615 1.77142,-0.14703 2.53068,3.08661 4.85839,3.23371 2.32773,0.14709 6.42582,-2.64484 9.10791,-2.3512 2.68212,0.29364 5.71968,2.88861 6.98476,4.11304 1.26508,1.22448 -0.55843,2.49878 0.6057,3.2337 1.16412,0.73486 4.25323,0.0488 6.37904,1.1756 2.12581,1.12671 5.71808,4.11511 6.37586,5.58484 0.65777,1.46978 -0.40487,2.69476 -2.4292,3.2337 -2.02434,0.53894 -8.14782,-0.73437 -9.7168,0 -1.569,0.73431 1.31502,3.3288 0.30284,4.40619 -1.01216,1.07733 -4.19955,2.49878 -6.37585,2.05804 -2.17629,-0.44073 -5.41681,-4.84948 -6.68189,-4.70239 -1.26507,0.1471 0.45746,4.89887 -0.90855,5.58484 -1.36603,0.68604 -5.00983,-0.29309 -7.28762,-1.46869 -2.27777,-1.1756 -5.5693,-5.82965 -6.37902,-5.5849 -0.80974,0.24481 2.38084,5.73096 1.52063,7.05359 -0.8602,1.32269 -3.84783,1.71509 -6.68189,0.88251 -2.83407,-0.83258 -7.0331,-4.31055 -10.32251,-5.87799 -3.28941,-1.56751 -7.18718,-2.05707 -9.41394,-3.5268 -2.22678,-1.46978 -3.64274,-3.57721 -3.94665,-5.29175 -0.30393,-1.71453 0.8076,-3.91815 2.12315,-4.99554 z" />
  <path
     style="fill:#000000;fill-opacity:0;fill-rule:nonzero"
     inkscape:connector-curvature="0"
     id="path4263"
     d="m 156.02884,499.99736 c 1.41704,0.34302 4.95988,1.56799 8.5022,2.05811 3.54231,0.49005 8.65255,1.02954 12.75171,0.88244 4.09913,-0.14703 6.63035,-1.61786 11.84314,-1.76495 5.21279,-0.14704 16.19467,0.73541 19.4336,0.88251" />
  <path
     style="stroke:#bf9000;stroke-width:2;stroke-linecap:butt;stroke-linejoin:round"
     inkscape:connector-curvature="0"
     id="path4265"
     d="m 156.02884,499.99736 c 1.41704,0.34302 4.95988,1.56799 8.5022,2.05811 3.54231,0.49005 8.65255,1.02954 12.75171,0.88244 4.09913,-0.14703 6.63035,-1.61786 11.84314,-1.76495 5.21279,-0.14704 16.19467,0.73541 19.4336,0.88251" />
  <path
     style="fill:#000000;fill-opacity:0;fill-rule:nonzero"
     inkscape:connector-curvature="0"
     id="path4267"
     d="m 207.64774,491.76816 c 0.9617,-0.44073 3.03703,-1.56696 5.77016,-2.64429 2.73311,-1.07739 7.38962,-2.49725 10.62854,-3.81994 3.23893,-1.3227 7.33755,-3.43012 8.80505,-4.11615" />
  <path
     style="stroke:#bf9000;stroke-width:2;stroke-linecap:butt;stroke-linejoin:round"
     inkscape:connector-curvature="0"
     id="path4269"
     d="m 207.64774,491.76816 c 0.9617,-0.44073 3.03703,-1.56696 5.77016,-2.64429 2.73311,-1.07739 7.38962,-2.49725 10.62854,-3.81994 3.23893,-1.3227 7.33755,-3.43012 8.80505,-4.11615" />
  <path
     style="fill:#000000;fill-opacity:0;fill-rule:nonzero"
     inkscape:connector-curvature="0"
     id="path4271"
     d="m 231.03119,475.01662 c 0.15143,-1.07788 0.90855,-3.43011 0.90855,-6.46735 0,-3.03723 -0.85807,-6.90704 -0.90855,-11.75598 -0.0505,-4.849 1.01057,-12.39062 0.6057,-17.33777 -0.40486,-4.9472 -2.52909,-10.28781 -3.0349,-12.34536" />
  <path
     style="stroke:#bf9000;stroke-width:2;stroke-linecap:butt;stroke-linejoin:round"
     inkscape:connector-curvature="0"
     id="path4273"
     d="m 231.03119,475.01662 c 0.15143,-1.07788 0.90855,-3.43011 0.90855,-6.46735 0,-3.03723 -0.85807,-6.90704 -0.90855,-11.75598 -0.0505,-4.849 1.01057,-12.39062 0.6057,-17.33777 -0.40486,-4.9472 -2.52909,-10.28781 -3.0349,-12.34536" />
  <path
     style="fill:#000000;fill-opacity:0;fill-rule:nonzero"
     inkscape:connector-curvature="0"
     id="path4275"
     d="m 222.22295,418.29469 c -0.65778,-0.88196 -1.92232,-2.89117 -3.94666,-5.29175 -2.02433,-2.40057 -4.75798,-5.78079 -8.19935,-9.11166 -3.44136,-3.33087 -8.60262,-8.03275 -12.44885,-10.87354 -3.84623,-2.84076 -8.85712,-5.14261 -10.62854,-6.17111" />
  <path
     style="stroke:#bf9000;stroke-width:2;stroke-linecap:butt;stroke-linejoin:round"
     inkscape:connector-curvature="0"
     id="path4277"
     d="m 222.22295,418.29469 c -0.65778,-0.88196 -1.92232,-2.89117 -3.94666,-5.29175 -2.02433,-2.40057 -4.75798,-5.78079 -8.19935,-9.11166 -3.44136,-3.33087 -8.60262,-8.03275 -12.44885,-10.87354 -3.84623,-2.84076 -8.85712,-5.14261 -10.62854,-6.17111" />
  <path
     style="fill:#bf9000;fill-rule:nonzero"
     inkscape:connector-curvature="0"
     id="path4279"
     d="m 213.72102,476.63326 c 0.10149,0.57544 -1.70607,-1.56903 -2.57904,-2.94055 -0.87296,-1.37152 -2.02593,-3.28046 -2.65872,-5.28864 -0.6328,-2.00818 -1.18857,-5.93969 -1.13809,-6.7605 0.0505,-0.82073 0.90962,0.4032 1.44094,1.83594 0.53132,1.43274 0.9245,4.56818 1.74698,6.76044 0.82248,2.19232 3.08644,5.81787 3.18793,6.39331 z" />
  <path
     style="fill:#bf9000;fill-rule:nonzero"
     inkscape:connector-curvature="0"
     id="path4281"
     d="m 211.21503,453.85516 c -0.82248,-0.56366 -1.93559,-1.25073 -2.80856,-2.57336 -0.87296,-1.3227 -1.8219,-3.29334 -2.4292,-5.36274 -0.6073,-2.06939 -1.22734,-5.84149 -1.2146,-7.05359 0.0128,-1.21209 0.83523,-1.23529 1.29111,-0.21911 0.45588,1.01623 0.22953,3.64667 1.44413,6.31616 1.2146,2.66956 5.22396,8.21893 5.84348,9.70105 0.61952,1.48206 -1.30387,-0.24481 -2.12636,-0.80841 z" />
  <path
     style="fill:#bf9000;fill-rule:nonzero"
     inkscape:connector-curvature="0"
     id="path4283"
     d="m 209.3955,424.02526 c -0.32889,0.25711 -1.26402,0.90509 -1.44095,2.20309 -0.17692,1.29798 -0.0505,4.07859 0.37937,5.58487 0.42984,1.50626 1.37771,2.6937 2.19967,3.45273 0.82195,0.75904 2.73204,1.40753 2.73204,1.10156 0,-0.30596 -2.01104,-1.60296 -2.73204,-2.93746 -0.72101,-1.33451 -1.49301,-3.61216 -1.59396,-5.06958 -0.10095,-1.4574 0.91228,-2.95237 0.98825,-3.6749 0.076,-0.72254 -0.20349,-0.91745 -0.53238,-0.66031 z" />
  <path
     style="fill:#bf9000;fill-rule:nonzero"
     inkscape:connector-curvature="0"
     id="path4285"
     d="m 208.25654,419.47029 c -0.0383,0.15891 -1.81126,-0.77344 -3.11459,-1.83899 -1.30333,-1.06555 -4.00989,-3.46457 -4.70539,-4.55429 -0.69549,-1.08972 0.29169,-1.95935 0.53238,-1.98401 0.24069,-0.0247 0.178,0.90509 0.91175,1.83591 0.73376,0.93081 2.42814,2.65872 3.49078,3.74896 1.06265,1.09021 2.92332,2.63351 2.88507,2.79242 z" />
  <path
     style="fill:#bf9000;fill-rule:nonzero"
     inkscape:connector-curvature="0"
     id="path4287"
     d="m 196.71717,405.94789 c 0.11423,0.23297 -1.22575,0.67368 -2.19968,0.44122 -0.9739,-0.23242 -2.22676,-0.5744 -3.6438,-1.8359 -1.41703,-1.26148 -4.31433,-4.7533 -4.85839,-5.73297 -0.54407,-0.97968 0.91069,-0.78168 1.59396,-0.14502 0.68327,0.63665 1.46857,2.91226 2.50571,3.96493 1.03714,1.0527 2.61676,1.79993 3.71713,2.35123 1.10036,0.55127 2.77083,0.72354 2.88507,0.95651 z" />
  <path
     style="fill:#bf9000;fill-rule:nonzero"
     inkscape:connector-curvature="0"
     id="path4289"
     d="m 187.53176,392.43114 c -0.27841,0.0612 -3.79523,-0.67575 -5.23776,-1.10464 -1.44254,-0.4289 -2.5445,-0.59964 -3.41745,-1.46872 -0.87296,-0.86911 -1.47867,-2.5091 -1.82032,-3.74588 -0.34162,-1.23679 -0.53291,-2.97654 -0.22952,-3.6749 0.30338,-0.69836 1.85962,-0.83362 2.04984,-0.51529 0.19021,0.31833 -0.99729,1.2738 -0.90856,2.42523 0.0887,1.15143 0.44153,3.38129 1.44094,4.48334 0.99942,1.10205 3.20173,1.5289 4.55555,2.12903 1.35381,0.60016 3.84569,1.41061 3.56728,1.47183 z" />
  <path
     style="fill:#bf9000;fill-rule:nonzero"
     inkscape:connector-curvature="0"
     id="path4291"
     d="m 203.01914,384.05446 c -0.0887,-0.0982 -0.41815,0.30493 -0.53238,1.0275 -0.11423,0.72253 -0.24174,3.20947 -0.15301,3.3077 0.0887,0.0982 0.57116,-1.99584 0.68539,-2.71838 0.11424,-0.72253 0.0887,-1.51861 0,-1.61682 z" />
  <path
     style="fill:#bf9000;fill-rule:nonzero"
     inkscape:connector-curvature="0"
     id="path4293"
     d="m 226.32302,419.39746 c -0.0255,-0.13474 -1.12694,-0.40524 -1.74698,-0.14813 -0.62005,0.25714 -1.83465,0.77243 -1.97333,1.69089 -0.13867,0.91848 1.0398,3.73458 1.14128,3.81994 0.10148,0.0854 -0.69656,-2.52399 -0.53239,-3.30774 0.16418,-0.78372 0.99889,-1.05215 1.51746,-1.39465 0.51857,-0.3425 1.61946,-0.52557 1.59396,-0.66031 z" />
  <path
     style="fill:#bf9000;fill-rule:nonzero"
     inkscape:connector-curvature="0"
     id="path4295"
     d="m 222.90822,431.73903 c -0.076,-0.2695 -3.11354,3.8338 -3.79683,5.21765 -0.68327,1.38391 -1.21353,1.39575 -0.30286,3.08557 0.91069,1.68988 5.31163,6.69824 5.76697,7.05359 0.45534,0.35541 -2.20019,-3.50104 -3.03491,-4.92145 -0.8347,-1.42041 -2.20126,-1.86163 -1.97333,-3.60083 0.22794,-1.73925 3.41693,-6.56506 3.34096,-6.83453 z" />
  <path
     style="fill:#bf9000;fill-rule:nonzero"
     inkscape:connector-curvature="0"
     id="path4297"
     d="m 222.2983,452.60652 c 0.0383,-0.38007 -1.65613,-0.5282 -2.27618,-0.58936 -0.62006,-0.0612 -1.31768,-0.53741 -1.44414,0.22217 -0.12645,0.75952 0.17906,2.60883 0.68541,4.33521 0.50635,1.72638 1.47973,4.65149 2.35269,6.02301 0.87295,1.37152 2.87231,2.46332 2.88507,2.20617 0.0128,-0.25714 -2.0238,-1.99792 -2.80856,-3.74896 -0.78476,-1.75104 -2.00095,-5.34936 -1.9,-6.75738 0.10094,-1.40802 2.46746,-1.31086 2.50571,-1.69086 z" />
  <path
     style="fill:#bf9000;fill-rule:nonzero"
     inkscape:connector-curvature="0"
     id="path4299"
     d="m 224.04751,475.09066 c -0.076,-0.0982 -2.83513,-0.038 -3.79683,0.5863 -0.96168,0.62427 -1.40428,2.15528 -1.97331,3.15961 -0.56905,1.00433 -1.68111,3.05005 -1.44095,2.86646 0.24016,-0.1836 2.23686,-3.06189 2.88188,-3.96802 0.64502,-0.90613 0.26673,-1.02802 0.98827,-1.46875 0.72152,-0.44068 3.41691,-1.07733 3.34094,-1.1756 z" />
  <path
     style="fill:#bf9000;fill-rule:nonzero"
     inkscape:connector-curvature="0"
     id="path4301"
     d="m 210.00043,482.87746 c 0.26567,-0.18359 -2.90898,-2.33887 -3.87013,-2.71838 -0.96117,-0.37952 -1.06159,-0.2566 -1.89682,0.44122 -0.83524,0.69788 -2.25386,2.30133 -3.11461,3.74591 -0.86073,1.44458 -2.07533,4.65198 -2.04984,4.92145 0.0255,0.26947 1.29164,-1.9701 2.20287,-3.30463 0.91121,-1.33447 1.80968,-4.18811 3.26443,-4.70239 1.45476,-0.51428 5.19844,1.80041 5.4641,1.61682 z" />
  <path
     style="fill:#bf9000;fill-rule:nonzero"
     inkscape:connector-curvature="0"
     id="path4303"
     d="m 219.94736,488.90166 c -0.29117,-0.0494 -7.35083,2.28949 -8.5022,3.08557 -1.15136,0.79602 1.27783,0.98016 1.59397,1.69086 0.31613,0.71069 -0.1525,2.1203 0.30285,2.57336 0.45534,0.45307 2.30275,0.21857 2.4292,0.14502 0.12645,-0.0735 -1.34158,-0.0108 -1.67047,-0.58624 -0.32889,-0.5755 -0.15143,-2.27869 -0.30286,-2.86652 -0.15142,-0.58777 -1.63063,0.0134 -0.60571,-0.66027 1.02492,-0.67371 7.04639,-3.33246 6.75522,-3.38178 z" />
  <path
     style="fill:#bf9000;fill-rule:nonzero"
     inkscape:connector-curvature="0"
     id="path4305"
     d="m 181.61042,484.19946 c 0.18968,-0.47772 -1.64709,1.56848 -2.35587,2.49933 -0.70878,0.93078 -1.88459,2.15472 -1.89682,3.08557 -0.0122,0.93079 1.69704,2.53583 1.82349,2.49927 0.12647,-0.0365 -1.46963,-1.37097 -1.06476,-2.71839 0.40486,-1.34735 3.30428,-4.888 3.49396,-5.36578 z" />
  <path
     style="fill:#bf9000;fill-rule:nonzero"
     inkscape:connector-curvature="0"
     id="path4307"
     d="m 172.04525,488.60876 c -0.11369,-0.0488 -1.75813,1.78961 -2.73206,2.94055 -0.9739,1.15094 -1.99775,2.97345 -3.1114,3.96497 -1.11366,0.99145 -2.44408,1.56744 -3.57048,1.98401 -1.1264,0.41656 -3.06148,0.18463 -3.18793,0.51526 -0.12646,0.33068 1.22682,1.12573 2.4292,1.46875 1.20238,0.34301 4.59487,0.71173 4.78508,0.58935 0.1902,-0.12237 -3.54233,-0.82178 -3.6438,-1.32373 -0.10148,-0.50189 1.87131,-0.53687 3.0349,-1.68781 1.16359,-1.15087 2.94723,-3.80908 3.94665,-5.21765 0.99943,-1.40857 2.16355,-3.18481 2.04984,-3.2337 z" />
  <path
     style="fill:#bf9000;fill-rule:nonzero"
     inkscape:connector-curvature="0"
     id="path4309"
     d="m 189.80878,491.54921 c -0.31615,0.0242 -1.66783,1.44299 -2.50253,2.05499 -0.8347,0.61194 -2.82184,1.64099 -2.50571,1.61682 0.31613,-0.0242 3.56783,-1.1499 4.40253,-1.76184 0.8347,-0.612 0.92184,-1.93414 0.60571,-1.90997 z" />
  <path
     style="fill:#bf9000;fill-rule:nonzero"
     inkscape:connector-curvature="0"
     id="path4311"
     d="m 189.65854,509.69551 c -0.0505,0.0735 1.48079,1.87402 2.50571,2.42529 1.02491,0.55127 3.59332,0.956 3.6438,0.88245 0.0505,-0.0736 -2.31603,-0.7724 -3.34095,-1.32367 -1.02491,-0.55133 -2.75808,-2.05756 -2.80856,-1.98407 z" />
  <path
     style="fill:#bf9000;fill-rule:nonzero"
     inkscape:connector-curvature="0"
     id="path4313"
     d="m 203.77741,509.99256 c 0.25345,0.36719 2.65767,2.38568 2.88507,2.42218 0.22742,0.0365 -1.03979,-1.79938 -1.52063,-2.20312 -0.48085,-0.40369 -1.61787,-0.58625 -1.36444,-0.21906 z" />
  <path
     style="fill:#bf9000;fill-rule:nonzero"
     inkscape:connector-curvature="0"
     id="path4315"
     d="m 183.66231,514.10516 c 0.27841,0.29364 -1.73317,0.72101 -3.26443,0.21912 -1.53127,-0.50196 -5.64475,-2.93695 -5.92316,-3.23059 -0.27841,-0.29364 2.72142,0.96679 4.25268,1.46868 1.53127,0.50196 4.6565,1.24915 4.93491,1.54279 z" />
  <path
     style="fill:#bf9000;fill-rule:nonzero"
     inkscape:connector-curvature="0"
     id="path4317"
     d="m 233.53481,471.4905 c -0.17694,0.0977 0.69708,-4.10333 0.60889,-6.02612 -0.0882,-1.92285 -0.99889,-3.18433 -1.1381,-5.51081 -0.1392,-2.32653 0.13869,-8.11761 0.30286,-8.4483 0.16419,-0.33069 0.36609,4.23547 0.68222,6.46423 0.31613,2.22883 1.29057,4.65509 1.2146,6.90863 -0.076,2.25348 -1.49354,6.51465 -1.67047,6.61237 z" />
  <path
     style="fill:#bf9000;fill-rule:nonzero"
     inkscape:connector-curvature="0"
     id="path4319"
     d="m 222.83263,415.50226 c 0.0128,0.30597 -1.5302,-2.59753 -3.56728,-4.92456 -2.03709,-2.32706 -5.83337,-6.3316 -8.65522,-9.03763 -2.82186,-2.70605 -8.47829,-7.18628 -8.27587,-7.19861 0.20244,-0.0124 6.68137,4.72449 9.49046,7.12455 2.8091,2.40005 5.52947,4.9364 7.36411,7.27575 1.83466,2.33939 3.63106,6.4545 3.6438,6.7605 z" />
  <path
     style="fill:#f1d743;fill-rule:nonzero"
     inkscape:connector-curvature="0"
     id="path4321"
     d="m 146.46068,493.09316 c 0.0505,-3.25732 0.17851,-3.08612 0.60889,-3.96802 0.43037,-0.88196 1.21406,-1.10315 1.97332,-1.32373 0.75927,-0.22064 1.82297,-0.36767 2.58222,0 0.75926,0.36768 1.59396,1.1283 1.97333,2.20618 0.37936,1.07788 0.35333,1.05322 0.30285,4.26117 -0.0505,3.20794 -0.0239,12.07226 -0.60571,14.98657 -0.58179,2.91431 -1.79692,2.59705 -2.88507,2.49933 -1.08814,-0.0977 -2.98549,0.0247 -3.6438,-3.08557 -0.65831,-3.11023 -0.35651,-12.31861 -0.30603,-15.57593 z" />
  <path
     style="stroke:#bf9000;stroke-width:2;stroke-linecap:butt;stroke-linejoin:round"
     inkscape:connector-curvature="0"
     id="path4323"
     d="m 146.46068,493.09316 c 0.0505,-3.25732 0.17851,-3.08612 0.60889,-3.96802 0.43037,-0.88196 1.21406,-1.10315 1.97332,-1.32373 0.75927,-0.22064 1.82297,-0.36767 2.58222,0 0.75926,0.36768 1.59396,1.1283 1.97333,2.20618 0.37936,1.07788 0.35333,1.05322 0.30285,4.26117 -0.0505,3.20794 -0.0239,12.07226 -0.60571,14.98657 -0.58179,2.91431 -1.79692,2.59705 -2.88507,2.49933 -1.08814,-0.0977 -2.98549,0.0247 -3.6438,-3.08557 -0.65831,-3.11023 -0.35651,-12.31861 -0.30603,-15.57593 z" />
  <path
     style="fill:#f1d743;fill-rule:nonzero"
     inkscape:connector-curvature="0"
     id="path4325"
     d="m 137.96047,493.38576 c -0.73375,1.37152 0.58234,3.77313 0.45587,6.02612 -0.12645,2.25299 -1.67047,5.90009 -1.2146,7.49176 0.45587,1.59162 2.45683,1.78858 3.94985,2.05805 1.49301,0.26947 4.02157,0.88147 5.00822,-0.44123 0.98666,-1.32269 0.83577,-4.82531 0.91176,-7.49487 0.076,-2.66949 0.2529,-6.88183 -0.45587,-8.52228 -0.70879,-1.6405 -2.3543,-1.46771 -3.79683,-1.32061 -1.44254,0.14703 -4.12465,0.83154 -4.8584,2.20306 z" />
  <path
     style="stroke:#bf9000;stroke-width:2;stroke-linecap:butt;stroke-linejoin:round"
     inkscape:connector-curvature="0"
     id="path4327"
     d="m 137.96047,493.38576 c -0.73375,1.37152 0.58234,3.77313 0.45587,6.02612 -0.12645,2.25299 -1.67047,5.90009 -1.2146,7.49176 0.45587,1.59162 2.45683,1.78858 3.94985,2.05805 1.49301,0.26947 4.02157,0.88147 5.00822,-0.44123 0.98666,-1.32269 0.83577,-4.82531 0.91176,-7.49487 0.076,-2.66949 0.2529,-6.88183 -0.45587,-8.52228 -0.70879,-1.6405 -2.3543,-1.46771 -3.79683,-1.32061 -1.44254,0.14703 -4.12465,0.83154 -4.8584,2.20306 z" />
  <path
     style="fill:#f1d743;fill-rule:nonzero"
     inkscape:connector-curvature="0"
     id="path4329"
     d="m 162.39592,493.38576 c 0.73376,1.37152 -0.58232,3.77313 -0.45587,6.02612 0.12645,2.25299 1.67047,5.90009 1.2146,7.49176 -0.45587,1.59162 -2.45683,1.78858 -3.94985,2.05805 -1.49301,0.26947 -4.02156,0.88147 -5.00822,-0.44123 -0.98666,-1.32269 -0.83577,-4.82531 -0.91174,-7.49487 -0.076,-2.66949 -0.25292,-6.88183 0.45587,-8.52228 0.70877,-1.6405 2.35428,-1.46771 3.79681,-1.32061 1.44254,0.14703 4.12465,0.83154 4.8584,2.20306 z" />
  <path
     style="stroke:#bf9000;stroke-width:2;stroke-linecap:butt;stroke-linejoin:round"
     inkscape:connector-curvature="0"
     id="path4331"
     d="m 162.39592,493.38576 c 0.73376,1.37152 -0.58232,3.77313 -0.45587,6.02612 0.12645,2.25299 1.67047,5.90009 1.2146,7.49176 -0.45587,1.59162 -2.45683,1.78858 -3.94985,2.05805 -1.49301,0.26947 -4.02156,0.88147 -5.00822,-0.44123 -0.98666,-1.32269 -0.83577,-4.82531 -0.91174,-7.49487 -0.076,-2.66949 -0.25292,-6.88183 0.45587,-8.52228 0.70877,-1.6405 2.35428,-1.46771 3.79681,-1.32061 1.44254,0.14703 4.12465,0.83154 4.8584,2.20306 z" />
  <path
     style="fill:#f1d743;fill-rule:nonzero"
     inkscape:connector-curvature="0"
     id="path4333"
     d="m 163.31652,357.89668 c 1.31609,0.56311 4.88443,3.45273 6.98474,6.17111 2.10031,2.71839 4.68094,5.82865 5.61713,10.13916 0.93619,4.31055 1.11365,11.29114 0,15.72406 -1.11365,4.43292 -3.56941,7.9592 -6.68189,10.87351 -3.11249,2.91433 -7.58993,5.43676 -11.99298,6.61236 -4.40306,1.1756 -9.87036,1.54331 -14.42537,0.44126 -4.55502,-1.10205 -9.61532,-4.13929 -12.90472,-7.05362 -3.28941,-2.91431 -5.59216,-6.19529 -6.83173,-10.43228 -1.23958,-4.237 -1.5419,-10.31144 -0.60571,-14.98966 0.93619,-4.67825 3.92009,-10.01834 6.22284,-13.07971 2.30273,-3.0614 5.99914,-4.72556 7.59363,-5.28867 1.59449,-0.56311 2.27725,0.80789 1.97332,1.90998 -0.3039,1.10205 -2.65818,2.00817 -3.79681,4.70239 -1.13863,2.69421 -2.88295,7.66659 -3.03491,11.46286 -0.15195,3.79629 0.73163,8.30224 2.12317,11.31479 1.39152,3.01251 3.36644,5.21768 6.22601,6.76046 2.85957,1.54279 7.23712,2.66797 10.9314,2.49622 3.69427,-0.17178 8.37469,-1.66571 11.23425,-3.52679 2.85957,-1.86112 4.86053,-4.50495 5.92317,-7.63987 1.06264,-3.13494 1.36391,-7.20224 0.45268,-11.16973 -0.9112,-3.96753 -5.08526,-10.06409 -5.91996,-12.63541 -0.83472,-2.57129 -0.40435,-3.35553 0.91174,-2.79242 z" />
  <path
     style="stroke:#bf9000;stroke-width:2;stroke-linecap:butt;stroke-linejoin:round"
     inkscape:connector-curvature="0"
     id="path4335"
     d="m 163.31652,357.89668 c 1.31609,0.56311 4.88443,3.45273 6.98474,6.17111 2.10031,2.71839 4.68094,5.82865 5.61713,10.13916 0.93619,4.31055 1.11365,11.29114 0,15.72406 -1.11365,4.43292 -3.56941,7.9592 -6.68189,10.87351 -3.11249,2.91433 -7.58993,5.43676 -11.99298,6.61236 -4.40306,1.1756 -9.87036,1.54331 -14.42537,0.44126 -4.55502,-1.10205 -9.61532,-4.13929 -12.90472,-7.05362 -3.28941,-2.91431 -5.59216,-6.19529 -6.83173,-10.43228 -1.23958,-4.237 -1.5419,-10.31144 -0.60571,-14.98966 0.93619,-4.67825 3.92009,-10.01834 6.22284,-13.07971 2.30273,-3.0614 5.99914,-4.72556 7.59363,-5.28867 1.59449,-0.56311 2.27725,0.80789 1.97332,1.90998 -0.3039,1.10205 -2.65818,2.00817 -3.79681,4.70239 -1.13863,2.69421 -2.88295,7.66659 -3.03491,11.46286 -0.15195,3.79629 0.73163,8.30224 2.12317,11.31479 1.39152,3.01251 3.36644,5.21768 6.22601,6.76046 2.85957,1.54279 7.23712,2.66797 10.9314,2.49622 3.69427,-0.17178 8.37469,-1.66571 11.23425,-3.52679 2.85957,-1.86112 4.86053,-4.50495 5.92317,-7.63987 1.06264,-3.13494 1.36391,-7.20224 0.45268,-11.16973 -0.9112,-3.96753 -5.08526,-10.06409 -5.91996,-12.63541 -0.83472,-2.57129 -0.40435,-3.35553 0.91174,-2.79242 z" />
  <path
     style="fill:#f1d743;fill-rule:nonzero"
     inkscape:connector-curvature="0"
     id="path4337"
     d="m 131.91114,350.16274 13.47252,-0.47293 5.1766,-12.03864 4.62722,12.24524 13.43829,1.0401 -10.61275,8.0409 3.12871,12.68145 -11.18625,-7.27569 -11.50464,6.79748 3.69927,-12.53753 z" />
  <path
     style="stroke:#bf9000;stroke-width:1;stroke-linecap:square;stroke-linejoin:miter;stroke-miterlimit:10;stroke-dasharray:none"
     inkscape:connector-curvature="0"
     id="path4339"
     d="m 131.91114,350.16274 13.47252,-0.47293 5.1766,-12.03864 4.62722,12.24524 13.43829,1.0401 -10.61275,8.0409 3.12871,12.68145 -11.18625,-7.27569 -11.50464,6.79748 3.69927,-12.53753 z" />
  <path
     style="fill:#000000;fill-opacity:0;fill-rule:nonzero"
     inkscape:connector-curvature="0"
     id="path4341"
     d="m 138.45084,371.18066 16.72804,-21.31165" />
  <path
     style="stroke:#bf9000;stroke-width:1;stroke-linecap:butt;stroke-linejoin:miter;stroke-miterlimit:10;stroke-dasharray:none"
     inkscape:connector-curvature="0"
     id="path4343"
     d="m 138.45084,371.18066 16.72804,-21.31165" />
  <path
     style="fill:#000000;fill-opacity:0;fill-rule:nonzero"
     inkscape:connector-curvature="0"
     id="path4345"
     d="m 131.91114,350.16274 26.26833,8.92047" />
  <path
     sodipodi:nodetypes="cc"
     style="stroke:#bf9000;stroke-width:1;stroke-linecap:butt;stroke-linejoin:miter;stroke-miterlimit:10;stroke-dasharray:none"
     inkscape:connector-curvature="0"
     id="path4347"
     d="m 131.91114,350.16274 26.26833,8.92047" />
  <path
     style="fill:#000000;fill-opacity:0;fill-rule:nonzero"
     inkscape:connector-curvature="0"
     id="path4349"
     d="m 150.56026,337.65116 -0.56491,26.77762" />
  <path
     style="stroke:#bf9000;stroke-width:1;stroke-linecap:butt;stroke-linejoin:miter;stroke-miterlimit:10;stroke-dasharray:none"
     inkscape:connector-curvature="0"
     id="path4351"
     d="m 150.56026,337.65116 -0.56491,26.77762" />
  <path
     style="fill:#000000;fill-opacity:0;fill-rule:nonzero"
     inkscape:connector-curvature="0"
     id="path4353"
     d="m 168.62577,350.93651 -26.27852,7.64819" />
  <path
     style="stroke:#bf9000;stroke-width:1;stroke-linecap:butt;stroke-linejoin:miter;stroke-miterlimit:10;stroke-dasharray:none"
     inkscape:connector-curvature="0"
     id="path4355"
     d="m 168.62577,350.93651 -26.27852,7.64819" />
  <path
     style="fill:#000000;fill-opacity:0;fill-rule:nonzero"
     inkscape:connector-curvature="0"
     id="path4357"
     d="M 161.14173,371.65886 145.4834,349.77748" />
  <path
     style="stroke:#bf9000;stroke-width:1;stroke-linecap:butt;stroke-linejoin:miter;stroke-miterlimit:10;stroke-dasharray:none"
     inkscape:connector-curvature="0"
     id="path4359"
     d="M 161.14173,371.65886 145.4834,349.77748" />
  <g
     id="g4810"
     transform="translate(-55.289049,-3.6887027)">
    <path
       d="m 184.08557,326.24496 39.68504,-57.88977"
       id="path4064"
       inkscape:connector-curvature="0"
       style="fill:#000000;fill-opacity:0;fill-rule:nonzero" />
    <path
       d="m 164.81263,271.98382 67.71654,20.03149"
       id="path4068"
       inkscape:connector-curvature="0"
       style="fill:#000000;fill-opacity:0;fill-rule:nonzero" />
    <path
       d="m 210.50756,236.89285 2.11023,70.29922"
       id="path4072"
       inkscape:connector-curvature="0"
       style="fill:#000000;fill-opacity:0;fill-rule:nonzero" />
    <path
       d="m 258.02151,269.4666 -65.6693,23.40158"
       id="path4076"
       inkscape:connector-curvature="0"
       style="fill:#000000;fill-opacity:0;fill-rule:nonzero" />
    <path
       d="M 241.69183,324.68923 199.14065,269.31914"
       id="path4080"
       inkscape:connector-curvature="0"
       style="fill:#000000;fill-opacity:0;fill-rule:nonzero" />
    <g
       transform="translate(-155.62762,-79.254752)"
       id="g5011-3"
       style="fill:none;stroke:#aa8800;stroke-linecap:square;stroke-miterlimit:10">
      <path
         sodipodi:type="star"
         style="opacity:1;fill:#ffd42a;fill-opacity:1;stroke:#aa8800;stroke-width:4.41306877;stroke-linecap:square;stroke-linejoin:miter;stroke-miterlimit:4;stroke-dasharray:none;stroke-dashoffset:0;stroke-opacity:1;paint-order:markers stroke fill"
         id="path4978-9"
         sodipodi:sides="8"
         sodipodi:cx="213.84221"
         sodipodi:cy="358.90546"
         sodipodi:r1="68.181641"
         sodipodi:r2="40.908985"
         sodipodi:arg1="2.3561945"
         sodipodi:arg2="2.7488936"
         inkscape:flatsided="false"
         inkscape:rounded="0"
         inkscape:randomized="0"
         d="m 165.63051,407.11716 10.41672,-32.55651 -30.38666,-15.65519 30.38667,-15.6552 -10.41673,-32.5565 32.55651,10.41672 15.65519,-30.38666 15.65519,30.38666 32.55651,-10.41672 -10.41673,32.55651 30.38667,15.65519 -30.38667,15.65519 10.41673,32.55651 -32.55651,-10.41673 -15.65519,30.38667 -15.65519,-30.38667 z"
         transform="matrix(0.69283888,0,0,0.66700471,213.31873,115.67109)" />
    </g>
    <path
       sodipodi:nodetypes="cccc"
       inkscape:connector-curvature="0"
       id="path4731"
       d="m 205.98302,275.8074 26.05211,10.44265 7.21712,21.71535 z"
       style="opacity:1;fill:#dbb110;fill-opacity:1;stroke:none;stroke-width:0.77556616;stroke-linecap:square;stroke-linejoin:round;stroke-miterlimit:4;stroke-dasharray:none;stroke-dashoffset:16.9260006;stroke-opacity:1" />
    <path
       sodipodi:nodetypes="cccc"
       inkscape:connector-curvature="0"
       id="path4733"
       d="m 205.98302,275.8074 26.05211,-10.44152 21.05307,10.44209 z"
       style="opacity:1;fill:#dbb110;fill-opacity:1;stroke:none;stroke-width:0.38778308;stroke-linecap:square;stroke-linejoin:round;stroke-miterlimit:4;stroke-dasharray:none;stroke-dashoffset:16.9260006;stroke-opacity:1" />
    <path
       sodipodi:nodetypes="cccc"
       inkscape:connector-curvature="0"
       id="path4735"
       d="m 205.98302,275.8074 10.71281,-25.20886 22.55642,-6.948 z"
       style="opacity:1;fill:#dbb110;fill-opacity:1;stroke:none;stroke-width:0.38778308;stroke-linecap:square;stroke-linejoin:round;stroke-miterlimit:4;stroke-dasharray:none;stroke-dashoffset:16.9260006;stroke-opacity:1" />
    <path
       sodipodi:nodetypes="cccc"
       inkscape:connector-curvature="0"
       id="path4737"
       d="m 195.00278,250.59854 10.84653,-20.26805 0.13371,45.47691 z"
       style="opacity:1;fill:#dbb110;fill-opacity:1;stroke:none;stroke-width:0.38778308;stroke-linecap:square;stroke-linejoin:round;stroke-miterlimit:4;stroke-dasharray:none;stroke-dashoffset:16.9260006;stroke-opacity:1" />
    <path
       sodipodi:nodetypes="cccc"
       inkscape:connector-curvature="0"
       id="path4739"
       d="m 179.66348,265.36588 -7.21711,-21.71534 33.53665,32.15686 z"
       style="opacity:1;fill:#dbb110;fill-opacity:1;stroke:none;stroke-width:0.38778308;stroke-linecap:square;stroke-linejoin:round;stroke-miterlimit:4;stroke-dasharray:none;stroke-dashoffset:16.9260006;stroke-opacity:1" />
    <path
       sodipodi:nodetypes="cccc"
       inkscape:connector-curvature="0"
       id="path4741"
       d="m 158.61041,275.80797 47.37261,-5.7e-4 -26.31954,10.44263 z"
       style="opacity:1;fill:#dbb110;fill-opacity:1;stroke:none;stroke-width:0.38778308;stroke-linecap:square;stroke-linejoin:round;stroke-miterlimit:4;stroke-dasharray:none;stroke-dashoffset:16.9260006;stroke-opacity:1" />
    <path
       sodipodi:nodetypes="cccc"
       inkscape:connector-curvature="0"
       id="path4743"
       d="m 205.98302,275.8074 -10.98024,25.21 -22.55641,6.948 z"
       style="opacity:1;fill:#dbb110;fill-opacity:1;stroke:none;stroke-width:0.38778308;stroke-linecap:square;stroke-linejoin:round;stroke-miterlimit:4;stroke-dasharray:none;stroke-dashoffset:16.9260006;stroke-opacity:1" />
    <path
       sodipodi:nodetypes="cccc"
       inkscape:connector-curvature="0"
       id="path4745"
       d="m 205.98302,275.8074 10.71281,25.21 -10.84652,20.26804 z"
       style="opacity:1;fill:#dbb110;fill-opacity:1;stroke:none;stroke-width:0.38778308;stroke-linecap:square;stroke-linejoin:round;stroke-miterlimit:4;stroke-dasharray:none;stroke-dashoffset:16.9260006;stroke-opacity:1" />
  </g>
  <g
     transform="translate(-55.289048,-114.69808)"
     style="fill:none;stroke:none;stroke-linecap:square;stroke-miterlimit:10"
     id="g4810-1">
    <path
       d="m 184.08557,326.24496 39.68504,-57.88977"
       id="path4064-1"
       inkscape:connector-curvature="0"
       style="fill:#000000;fill-opacity:0;fill-rule:nonzero" />
    <path
       d="m 164.81263,271.98382 67.71654,20.03149"
       id="path4068-2"
       inkscape:connector-curvature="0"
       style="fill:#000000;fill-opacity:0;fill-rule:nonzero" />
    <path
       d="m 210.50756,236.89285 2.11023,70.29922"
       id="path4072-3"
       inkscape:connector-curvature="0"
       style="fill:#000000;fill-opacity:0;fill-rule:nonzero" />
    <path
       d="m 258.02151,269.4666 -65.6693,23.40158"
       id="path4076-91"
       inkscape:connector-curvature="0"
       style="fill:#000000;fill-opacity:0;fill-rule:nonzero" />
    <path
       d="M 241.69183,324.68923 199.14065,269.31914"
       id="path4080-6"
       inkscape:connector-curvature="0"
       style="fill:#000000;fill-opacity:0;fill-rule:nonzero" />
    <g
       transform="translate(-155.62762,-79.254752)"
       id="g5011-3-3"
       style="fill:none;stroke:#aa8800;stroke-linecap:square;stroke-miterlimit:10">
      <path
         sodipodi:type="star"
         style="opacity:1;fill:#ffd42a;fill-opacity:1;stroke:#aa8800;stroke-width:4.41306877;stroke-linecap:square;stroke-linejoin:miter;stroke-miterlimit:4;stroke-dasharray:none;stroke-dashoffset:0;stroke-opacity:1;paint-order:markers stroke fill"
         id="path4978-9-98"
         sodipodi:sides="8"
         sodipodi:cx="213.84221"
         sodipodi:cy="358.90546"
         sodipodi:r1="68.181641"
         sodipodi:r2="40.908985"
         sodipodi:arg1="2.3561945"
         sodipodi:arg2="2.7488936"
         inkscape:flatsided="false"
         inkscape:rounded="0"
         inkscape:randomized="0"
         d="m 165.63051,407.11716 10.41672,-32.55651 -30.38666,-15.65519 30.38667,-15.6552 -10.41673,-32.5565 32.55651,10.41672 15.65519,-30.38666 15.65519,30.38666 32.55651,-10.41672 -10.41673,32.55651 30.38667,15.65519 -30.38667,15.65519 10.41673,32.55651 -32.55651,-10.41673 -15.65519,30.38667 -15.65519,-30.38667 z"
         transform="matrix(0.69283888,0,0,0.66700471,213.31873,115.67109)" />
    </g>
    <path
       sodipodi:nodetypes="cccc"
       inkscape:connector-curvature="0"
       id="path4731-5"
       d="m 205.98302,275.8074 26.05211,10.44265 7.21712,21.71535 z"
       style="opacity:1;fill:#dbb110;fill-opacity:1;stroke:none;stroke-width:0.77556616;stroke-linecap:square;stroke-linejoin:round;stroke-miterlimit:4;stroke-dasharray:none;stroke-dashoffset:16.9260006;stroke-opacity:1" />
    <path
       sodipodi:nodetypes="cccc"
       inkscape:connector-curvature="0"
       id="path4733-8"
       d="m 205.98302,275.8074 26.05211,-10.44152 21.05307,10.44209 z"
       style="opacity:1;fill:#dbb110;fill-opacity:1;stroke:none;stroke-width:0.38778308;stroke-linecap:square;stroke-linejoin:round;stroke-miterlimit:4;stroke-dasharray:none;stroke-dashoffset:16.9260006;stroke-opacity:1" />
    <path
       sodipodi:nodetypes="cccc"
       inkscape:connector-curvature="0"
       id="path4735-1"
       d="m 205.98302,275.8074 10.71281,-25.20886 22.55642,-6.948 z"
       style="opacity:1;fill:#dbb110;fill-opacity:1;stroke:none;stroke-width:0.38778308;stroke-linecap:square;stroke-linejoin:round;stroke-miterlimit:4;stroke-dasharray:none;stroke-dashoffset:16.9260006;stroke-opacity:1" />
    <path
       sodipodi:nodetypes="cccc"
       inkscape:connector-curvature="0"
       id="path4737-68"
       d="m 195.00278,250.59854 10.84653,-20.26805 0.13371,45.47691 z"
       style="opacity:1;fill:#dbb110;fill-opacity:1;stroke:none;stroke-width:0.38778308;stroke-linecap:square;stroke-linejoin:round;stroke-miterlimit:4;stroke-dasharray:none;stroke-dashoffset:16.9260006;stroke-opacity:1" />
    <path
       sodipodi:nodetypes="cccc"
       inkscape:connector-curvature="0"
       id="path4739-1"
       d="m 179.66348,265.36588 -7.21711,-21.71534 33.53665,32.15686 z"
       style="opacity:1;fill:#dbb110;fill-opacity:1;stroke:none;stroke-width:0.38778308;stroke-linecap:square;stroke-linejoin:round;stroke-miterlimit:4;stroke-dasharray:none;stroke-dashoffset:16.9260006;stroke-opacity:1" />
    <path
       sodipodi:nodetypes="cccc"
       inkscape:connector-curvature="0"
       id="path4741-6"
       d="m 158.61041,275.80797 47.37261,-5.7e-4 -26.31954,10.44263 z"
       style="opacity:1;fill:#dbb110;fill-opacity:1;stroke:none;stroke-width:0.38778308;stroke-linecap:square;stroke-linejoin:round;stroke-miterlimit:4;stroke-dasharray:none;stroke-dashoffset:16.9260006;stroke-opacity:1" />
    <path
       sodipodi:nodetypes="cccc"
       inkscape:connector-curvature="0"
       id="path4743-1"
       d="m 205.98302,275.8074 -10.98024,25.21 -22.55641,6.948 z"
       style="opacity:1;fill:#dbb110;fill-opacity:1;stroke:none;stroke-width:0.38778308;stroke-linecap:square;stroke-linejoin:round;stroke-miterlimit:4;stroke-dasharray:none;stroke-dashoffset:16.9260006;stroke-opacity:1" />
    <path
       sodipodi:nodetypes="cccc"
       inkscape:connector-curvature="0"
       id="path4745-6"
       d="m 205.98302,275.8074 10.71281,25.21 -10.84652,20.26804 z"
       style="opacity:1;fill:#dbb110;fill-opacity:1;stroke:none;stroke-width:0.38778308;stroke-linecap:square;stroke-linejoin:round;stroke-miterlimit:4;stroke-dasharray:none;stroke-dashoffset:16.9260006;stroke-opacity:1" />
  </g>
</svg>
